<?xml version="1.0" encoding="UTF-8"?>
<svg version="1.0" viewBox="0 0 3525.7 2478" xmlns="http://www.w3.org/2000/svg" xmlns:cc="http://creativecommons.org/ns#" xmlns:dc="http://purl.org/dc/elements/1.1/" xmlns:rdf="http://www.w3.org/1999/02/22-rdf-syntax-ns#" xmlns:xlink="http://www.w3.org/1999/xlink">
<metadata>
<rdf:RDF>
<cc:Work rdf:about="">
<dc:format>image/svg+xml</dc:format>
<dc:type rdf:resource="http://purl.org/dc/dcmitype/StillImage"/>
<dc:title/>
</cc:Work>
</rdf:RDF>
</metadata>
<g transform="translate(-99.9 -28.6)">
<path d="m1567 28.6c-6.1941 0.058-12.282 0.1689-18.461 0.63655-1.7446 0.12786-3.5878 0.29089-5.2123 0.48934-4.6735 0.58123-9.3823 1.4783-13.699 3.4211-3.4545 1.652-6.2815 4.3977-8.3873 7.5658-3.2754 4.3131-7.3745 7.8965-11.32 11.574-6.2435 5.6405-12.914 10.775-19.433 16.086-8.4473 7.1134-16.016 15.256-22.591 24.124-0.5064 0.7071-1.1909 1.6412-1.7656 2.4355-7.9605 11.174-14.492 23.278-20.591 35.543-8.2066 16.535-16.494 33.11-25.253 49.391-3.8783 7.1814-7.8117 14.337-12.107 21.279-3.3758 5.3529-6.207 11.034-8.6151 16.882-1.4825 3.6003-2.8817 7.4372-4.1162 11.206-1.1889 3.647-2.3447 7.4896-3.3068 11.171-1.1146 4.1975-2.0756 8.3586-2.9481 12.635-0.4621 2.2939-0.9354 4.773-1.3319 7.1058-1.3557 7.9814-2.3575 16.007-2.8656 24.119-0.758 11.063-1.1366 22.211-3.437 33.094-1.3219 6.6607-3.4403 13.133-5.9449 19.437-3.1936 8.1197-6.7228 16.104-9.8591 24.246-3.0078 7.557-5.9136 15.169-8.5873 22.805-2.7364 7.8164-5.2076 15.62-7.3727 23.634-0.4357 1.6756-0.8734 3.2784-1.2646 4.9004-0.7819 3.1064-1.4792 6.2977-2.0875 9.3597-1.46 7.1244-2.3779 14.341-3.3301 21.546-2.8036 20.471-6.5773 40.798-10.797 61.022-2.3966 11.563-4.6041 23.155-6.6048 34.783-3.8911 22.539-7.0875 45.31-9.6772 68.039-2.2898 20.106-4.5229 40.227-6.9272 60.328-1.9309 16.328-3.9048 32.654-6.2329 48.931-0.7346 4.1914-2.747 8.4444-6.4947 10.722-4.1216 2.5322-9.4904 2.1682-13.683-3e-3 -6.6554-3.0977-12.49-7.6721-19.121-10.818-3.7655-1.9187-7.7456-3.7438-11.528-5.3997-4.2818-1.8484-8.6159-3.5733-12.982-5.2109-0.4964-0.17137-1.3194-0.46962-1.941-0.68962-5.6526-2.0072-11.555-3.8588-17.428-5.4033-2.1769-0.57001-4.4177-1.1094-6.5476-1.494-2.3729-0.45452-5.0046-0.83728-7.5017-1.1151-2.4331-0.2711-4.6587-0.44624-7.1177-0.58021-1.4147-0.0804-2.7666-0.11559-4.2321-0.16886-6.1376-0.18091-12.448-0.1541-18.653-0.13569-14.63 0.0474-29.192 0.4457-43.79 1.2211-14.551 0.75235-29.158 1.8545-43.656 3.196-14.344 1.3382-28.613 2.924-42.883 4.8201-14.398 1.9303-28.882 4.1711-43.234 6.6065-8.824 1.5058-17.854 3.13-26.559 5.2431-4.7322 1.1487-9.4231 2.4904-13.977 4.2246-0.35594 0.14711-1.1167 0.4414-1.6276 0.64485-4.3672 1.7032-8.4487 4.0569-12.863 5.6496-6.4297 2.4264-13.093 4.1982-19.826 5.5496-3.2735 0.65374-6.4522 1.6793-9.5757 2.8437-10.729 3.8748-21.125 8.6253-31.274 13.82-0.82014 0.43085-1.76 0.91449-2.5661 1.3599-3.3998 1.8736-6.815 3.7648-9.9393 6.0773-2.2099 1.8075-4.3001 3.9915-7.1622 4.7169-3.6438 1.1069-7.8883 0.31748-10.674-2.3494-3.1561-2.787-4.3652-7.016-5.1582-11.004-1.9784-9.6558-3.04-19.464-4.3975-29.218-1.6241-12.208-3.0914-24.416-4.8651-36.608-3.8416-24.817-9.1809-49.307-14.706-73.733-7.426-32.456-15.685-64.751-24.575-96.856-4.5029-16.08-9.1712-32.29-14.172-48.259-4.3834-13.892-8.8522-27.709-14.177-41.276-2.9801-7.641-6.2196-15.231-9.6935-22.711-6.9188-14.991-15.289-29.411-24.15-43.391-9.3414-14.682-19.238-29-29.184-43.277-16.087-22.99-32.509-45.742-48.951-68.478-5.0592-7.0129-11.195-13.157-17.401-19.146-10.374-9.9317-21.223-19.296-32.758-27.884-7.2384-5.3643-14.752-10.613-23.308-13.652-11.048-4.1339-22.645-6.5734-34.263-8.462-8.4253-1.3248-16.959-2.2442-25.418-2.7866-2.9456-0.1932-6.0181-0.32657-8.8905-0.41869-5.8596-0.16911-11.725-0.15177-17.582 0.10742-1.1844 0.0705-2.6182 0.12509-3.9 0.22294-7.0562 0.44298-14.097 1.343-20.983 2.9704-0.93656 0.23126-2.1368 0.52276-3.1679 0.80889-5.2268 1.4479-10.366 3.2041-15.404 5.2106-1.2225 0.49116-2.6651 1.0846-3.9612 1.6402-9.1327 3.9114-18.145 8.6844-26.685 13.788-9.4441 5.6538-18.51 11.925-27.244 18.619-0.99328 0.78044-2.1845 1.7037-3.2539 2.5391-1.2 0.96248-2.5832 2.0546-3.8412 3.0855-14.135 11.554-27.358 24.389-39.009 38.512-3.7241 4.5203-7.279 9.1898-10.391 14.157-7.326 11.445-13.845 23.383-20.221 35.376-6.9407 13.195-13.513 26.544-19.508 40.139-1.0539 2.4217-2.0804 4.8111-3.0544 7.2064-0.6276 1.5228-1.2425 3.0897-1.7842 4.5455-3.2348 8.5414-5.4681 17.415-7.7287 26.252-1.3143 5.3837-2.516 10.858-3.5372 16.237-0.93985 4.8381-1.7851 9.9749-2.5037 14.828-0.66109 4.6795-1.231 9.2624-1.7011 13.976-0.74084 7.0921-1.2354 14.32-1.5414 21.443-0.43739 10.147-0.49047 20.403-0.24747 30.608 0.10371 4.5368 0.29196 9.1427 0.57008 13.722 0.0807 1.1354 0.18438 2.6329 0.25781 3.748 0.29881 3.8188 0.65192 7.5249 1.123 11.326 0.48265 3.8619 1.09 7.8979 1.8387 11.791 1.0998 5.7559 2.5291 11.661 4.3799 17.317 2.945 9.1626 7.035 17.938 11.963 26.198 0.4576 0.73853 1.0433 1.7304 1.572 2.5563 1.2982 2.0799 2.6524 4.1324 4.0107 6.0876 4.5733 6.6326 9.6955 13.05 15.014 19.192 2.3445 2.7187 4.6591 5.2879 7.0841 7.9169 11.794 12.75 24.35 24.831 37.908 35.7 2.8599 2.3006 5.7918 4.5141 8.6928 6.605 7.2363 5.1539 14.833 9.9004 23.036 13.364 4.458 1.8761 9.1801 3.0974 13.988 3.6229 3.3647 0.44039 6.744 0.7586 10.126 1.0306 0.98389 0.0636 2.2228 0.15303 3.3047 0.22656 1.669 0.0969 3.5575 0.20882 5.3123 0.28166 10.071 0.44715 20.263 0.47727 30.402 0.21783 1.7105-0.0444 3.5179-0.11503 5.1546-0.17918 6.7175-0.36516 13.533-0.8087 19.979-2.8828 4.7741-1.5379 9.042-4.3554 12.706-7.7427 2.3502-2.024 4.5991-4.2501 7.349-5.7321 4.2429-2.1231 9.8932-1.4928 13.203 2.0383 3.0237 2.9291 4.0447 7.187 4.8051 11.179 1.4531 7.6049 2.6302 15.26 4.0522 22.87 2.7124 15.108 5.2163 30.256 8.2702 45.3 3.4851 15.939 9.0147 31.579 14.842 46.816 7.4982 19.526 15.502 38.943 23.646 58.243 6.8908 16.282 13.96 32.492 21.507 48.481 4.3021 9.0144 8.6741 18.137 13.84 26.744 3.4063 5.6147 7.4538 10.93 9.716 17.157 2.5062 6.4944 3.2685 13.915 0.87013 20.558-2.1327 6.0758-6.5364 11.076-11.559 14.977-1.3913 1.1994-2.747 2.453-4.0022 3.6774-5.3262 5.24-10.14 10.973-14.864 16.752-7.1719 8.9861-14.028 18.255-20.017 28.078-1.6796 2.858-3.3689 5.7417-4.5819 8.8334-1.2974 3.7076-2.2459 7.5811-4.2603 10.993-2.3239 4.2069-5.9717 7.8803-10.62 9.3868-0.6654 0.03-0.60682 0.7283-0.76918 1.2186-0.99276 4.1716-1.496 8.4408-2.1124 12.68-0.97204 7.4958-1.9316 14.979-2.6184 22.539-0.22718 2.6186-0.421 5.3916-0.54688 7.9609-0.15103 3.3762-0.21372 6.9013-0.13281 10.19 0.11266 4.9056 0.54566 9.7982 1.1836 14.662 0.22193 1.6242 0.47307 3.4624 0.72714 5.1671 2.3979 15.788 4.3233 31.645 6.4272 47.462 0.41745 2.7006 0.84539 5.2671 1.3086 7.9626 0.28545 1.5523 0.59474 3.3267 0.91443 4.9615 0.56589 2.9498 1.173 5.9223 1.814 8.7839 0.44826 2.0714 0.90741 3.9977 1.406 6.0829 1.2227 5.3428 2.8856 10.57 4.6976 15.738 1.9669 5.8166 3.8061 11.91 3.2129 18.123-0.5842 6.9573-3.8814 13.256-5.6397 19.93-4.7024 15.764-8.4905 31.83-12.2 47.884-2.9793 13.119-5.7524 26.287-8.192 39.518-1.4962 7.962-2.5325 16.124-3.8135 24.199-1.2848 7.8004-2.7357 15.606-5.0986 23.16-1.232 3.4894-3.5917 6.5143-6.563 8.6999-4.6447 3.6177-10.126 5.9138-15.508 8.1915-13.556 5.5541-27.515 10.03-41.369 14.765-20.453 6.891-40.648 14.37-60.651 22.39-13.376 5.3773-26.716 11.011-39.844 16.886-36.902 16.499-73.01 34.884-107.47 56.049-7.0889 4.3633-14.148 8.8942-21.085 13.561-5.0658 3.4174-10.25 7.0293-15.184 10.622-11.297 8.1743-22.221 16.96-32.495 26.342-4.1478 3.8561-8.5848 7.5504-11.739 12.311-0.72478 1.3187-0.98368 2.8533-0.92343 4.3455 3.6802-0.6481 6.9573-2.5861 10.144-4.4406 6.8404-4.1097 13.042-9.0441 19.56-13.667 33.056-23.429 67.808-44.394 103.39-63.737 22.226-12.026 44.832-23.381 67.98-33.531 20.721-8.9432 41.809-17.004 62.976-24.82 17.035-6.234 34.156-12.26 51.508-17.557 5.4006-1.5971 10.835-3.2036 16.425-3.9773 3.6768-0.3559 7.7168 0.6951 10.131 3.6441 2.3568 2.7105 2.9775 6.591 2.1588 10.024-1.0875 7.5947-2.8151 15.078-4.3299 22.594-4.1327 19.727-8.5323 39.4-13.376 58.965-0.85171 3.1846-1.6025 6.4231-2.8773 9.4696-1.3328 2.6926-3.8314 4.6069-6.5458 5.7728-19.825 10.428-39.916 20.338-59.77 30.71-13.071 6.8022-26.059 13.834-38.926 21.068-45.754 25.654-90.351 53.525-133.83 82.929-16.933 11.466-33.695 23.183-50.274 35.156-32.321 23.39-64.057 47.767-94.74 73.33-5.4353 4.5746-10.972 9.0485-16.073 14-1.4626 1.5269-3.006 3.0324-4.1043 4.8515-0.67365 1.2035-0.61346 2.6007-0.64649 3.9317 2.1721-0.275 4.1367-1.3079 6.0879-2.2344 0.3668-0.1983 0.92107-0.4695 1.3573-0.7161 5.3987-3.018 10.419-6.6566 15.4-10.309 6.5624-4.8854 13.137-9.8745 19.757-14.739 26.295-19.518 52.836-38.705 79.681-57.46 22.961-15.895 46.037-31.634 69.182-47.26 33.537-22.58 67.478-44.642 102.77-64.403 22.33-12.59 45.123-24.328 67.842-36.191 7.5953-3.909 15.163-7.8794 22.862-11.583 2.0058-1.0207 4.1878-1.5754 6.3658-2.0901 0.67399-0.1683 1.3482-0.336 2.0225-0.503 2.4648 2.3282 5.5379 4.3387 6.75 7.6621 0.78421 2.475 0.65076 5.1163 0.81291 7.6795 0.18281 9.4046 0.14285 18.812 0.13069 28.218-0.10167 28.555-0.72615 57.107-0.66258 85.663 0.0374 8.8297 0.14998 17.659 0.39476 26.486 0.4265 14.479 1.2216 29.092 2.8199 43.545 0.45421 4.1862 0.98864 8.3717 1.5687 12.591 1.9883 14.287 4.809 28.615 7.9704 42.734 2.5436 11.401 5.0336 22.816 7.0936 34.316 1.1338 6.332 2.235 12.678 2.9669 19.071 0.32625 3.5812 0.39479 7.1882 0.936 10.748 0.1267 0.7317 0.27752 1.7578 0.4197 2.6044 1.244 7.3176 3.0693 14.519 5.0659 21.663 1.9285 6.9122 3.4777 13.931 4.6233 21.016 0.84442 5.5323 1.2976 11.208 0.41261 16.764-0.72132 4.6214-4.2604 8.8295-8.9144 9.8116-3.8151 0.9598-7.7143-0.2636-11.277-1.5987-4.5881-1.7164-9.5275-2.1646-14.391-2.2292-3.1349-0.035-6.4906 0.1606-9.4727 0.3854-4.2652 0.3709-8.5594 0.9257-12.718 1.599-4.4094 0.7158-8.7701 1.5663-13.067 2.4986-5.9632 1.3219-12.046 2.7353-17.985 4.3765-9.1995 2.5186-18.183 6.0875-26.187 11.329-6.7506 4.2692-13.313 8.8325-20.215 12.861-2.7845 1.6237-5.604 3.2977-8.7098 4.2241-2.783 0.7376-5.7806 0.2819-8.3756-0.8055-6.3334-2.3058-12.213-5.6462-18.193-8.7141-3.4929-1.794-7.233-3.1416-11.134-3.6829-1.8755-0.2957-3.8265-0.4758-5.6254-0.5867-1.4503-0.089-2.9682-0.1716-4.3133-0.2211-9.7497-0.254-19.507-0.2744-29.258-0.054-2.1712 0.081-4.222 0.119-6.4005 0.4258-2.0844 0.1965-4.1353 0.9606-5.6593 2.4315-3.6666 3.1895-6.8764 6.9932-9.7989 10.785-0.93363 1.2034-1.9318 2.5605-2.7793 3.7012-6.1058 8.4471-11.803 17.184-17.304 26.035-5.6193 9.1398-10.99 18.443-15.829 28.022-3.418 6.9593-6.366 14.157-10.263 20.875-1.9112 3.3124-3.9734 6.5559-6.4092 9.5087-0.61286 0.8789-0.53181 2.0184-0.72689 3.0342-0.34753 3.2844-0.10193 6.5716-0.027 9.8525 0.0447 0.8703 0.10361 2.1124 0.14648 3.041 0.44488 8.2323 1.0818 16.39 2.1004 24.594 1.5808 12.551 4.2918 25.057 9.3045 36.715 4.8555 11.506 12.11 21.844 20.363 31.158 0.69166 0.7841 1.3536 1.5531 2.0008 2.2533 2.8816 3.1813 6.1085 6.2707 8.4709 9.9449 2.0493 3.243 3.1082 7.2177 2.3489 11.03-0.57825 3.594-2.6232 6.6796-4.502 9.7121-2.5787 4.5124-4.2316 9.4847-5.6395 14.467-0.69841 2.5543-1.2857 5.1277-1.8018 7.6588-1.6439 8.1215-2.6896 16.354-3.3282 24.613-0.1311 1.7546-0.27185 3.7567-0.37208 5.5193-0.57477 10.101-0.61589 20.377-0.24477 30.572 0.17647 4.608 0.44694 9.1748 0.78677 13.799 0.31039 3.9995 0.6885 8.2132 1.137 12.213 0.75923 6.574 1.5525 13.157 2.8687 19.646 1.5149 7.2505 4.0428 14.438 8.528 20.41 5.5547 7.7504 12.619 14.224 19.418 20.849 4.3649 4.1477 8.8193 8.2012 13.371 12.143 1.3288 1.1206 2.8025 2.4013 4.2135 3.5531 6.3798 5.3053 13.013 10.313 19.954 14.863 6.6833 4.3975 13.83 8.4126 21.179 11.744 6.4483 2.9869 13.153 5.3596 19.817 7.8087 1.4606 0.514 2.8992 1.0098 4.2598 1.412 4.2454 1.3528 8.6878 2.1335 13.153 2.0304 6.6048-0.1437 13.139-1.2502 19.662-2.2056 11.558-1.8067 23.105-3.6868 34.626-5.7146 5.6054-1.0092 11.278-2.1236 16.809-3.3545 2.8181-0.6492 5.7202-1.1875 8.357-2.5295 4.6033-2.1378 10.653-1.124 13.933 2.8696 2.7122 3.1639 3.5177 7.4428 3.6891 11.492 0.77565 11.774-0.0112 23.594 0.87539 35.364 0.68458 9.9766 2.0502 20.062 5.8193 29.391 2.6589 6.4552 6.8588 12.416 12.654 16.412 4.3388 3.0982 9.2394 5.4351 14.389 6.8125 3.2522 0.5927 6.5542 0.653 9.7966 0.7362 8.0695 0.2218 16.227 0.058 24.242-0.1678 12.569-0.4296 25.05-1.0554 37.586-1.9143 8.2552-0.5588 16.613-1.2181 24.849-1.9746 10.987-1.0175 21.976-2.1235 32.881-3.8304 3.9797-0.6369 7.9201-1.272 11.825-2.4107 6.4325-1.8585 12.593-4.5291 18.723-7.1931 5.6207-2.4952 11.021-5.121 16.504-7.9503 9.4576-4.9454 18.827-10.118 27.629-16.173 3.3334-2.2719 6.5769-4.722 9.2885-7.7295 3.6207-3.947 6.6266-8.4565 8.9627-13.272 1.3944-3.3632 2.1526-6.957 3.6697-10.275 1.2426-2.8467 2.7723-5.7321 5.2498-7.693 2.8594-2.1789 6.8181-2.7459 10.19-1.5242 7.081 1.6004 14.14 3.2685 21.196 4.7975 3.787 0.8134 7.6993 1.3822 11.603 1.8519 2.081 0.2451 4.2418 0.4567 6.3303 0.6296 2.2035 0.1815 4.7606 0.3254 6.9604 0.4363 7.8983 0.2969 15.85 0.3563 23.695-0.7304 1.1213-0.1604 2.4897-0.3901 3.6971-0.6321 4.4852-0.9199 8.3332-3.6223 11.863-6.4099 4.4565-3.6346 8.2346-8.1653 13.343-10.95 3.7394-2.1572 8.196-2.9466 12.458-2.309 3.9619 0.4728 7.6961 2.0059 11.644 2.5511 8.3671 1.4211 16.818 2.2663 25.254 3.1669 18.842 1.9078 37.719 3.3809 56.628 4.7715 20.922 1.5116 41.887 2.8065 62.853 3.9812 37.636 2.0145 75.365 3.6095 113.01 5.9923 3.4889 0.2134 6.9605 0.4324 10.405 0.4688 3.0224 0 6.0688 0.014 9.0625-0.4336 1.4825-0.237 2.4236-1.5005 3.674-2.2032 5.6988-3.6708 12.416-5.2827 19.015-6.4385 10.141-1.7177 20.439-2.2296 30.704-2.5523 15.145-0.4261 30.293 0.01 45.438 0.1245 7.8716 0.039 15.749-0.031 23.608-0.501 1.6568-0.1107 3.5279-0.2457 5.2625-0.4315 4.8837-0.4819 9.7333-1.3638 14.431-2.7943 9.3284-2.4921 18.974-3.4936 28.581-4.1785 7.2091-0.4965 14.443-0.2346 21.656-0.6106 3.0672-0.1756 6.132-0.5073 9.138-1.155 0.3652-0.079 1.1258-0.2502 1.6335-0.3964 0.6904-0.1708 1.6459-0.4632 2.1575-0.6173 7.0996-2.2389 13.686-5.7677 20.387-8.9514 13.757-6.7672 27.157-14.289 39.921-22.789 10.029-6.6825 19.838-14.154 28.933-22.233 17.302-15.31 32.3-33.128 45.035-52.381 9.5008-14.357 17.892-29.424 25.613-44.804 4.4527-9.0193 8.4629-18.254 12.114-27.625 2.2097-5.6632 4.3187-11.496 6.3116-17.289 5.4497-15.798 10.323-31.876 15.114-47.918 3.6644-12.445 7.3455-24.889 10.552-37.461 2.0043-7.9012 3.8429-15.989 5.2716-24.068 0.7017-4.0535 1.2826-8.0082 1.7794-12.111 0.4951-4.0716 0.8835-8.0309 1.2077-12.158 1.1178-14.463 1.3185-28.898 1.4488-43.404 0.1156-18.73 0.026-37.468 0.7222-56.187 0.3441-9.7216 0.763-19.45 1.7543-29.13 0.5041-4.153 1.9038-8.1253 2.526-12.257 1.5116-8.8394 2.2357-17.792 2.7822-26.736 0.1777-3.3542 0.3427-6.8785 0.4202-10.224 0.1789-8.3904 0.2512-16.813-0.6247-25.17-0.2129-2.8504-1.0404-5.5925-1.7707-8.339-1.8188-7.7382-1.5104-15.754-1.2961-23.639 0.6199-16.982 2.2729-33.902 3.6954-50.83 1.4788-16.734 2.8532-33.455 4.028-50.222 1.3314-18.738 2.5088-37.58 3.4994-56.325 1.0741-21.058 2.0155-42.118 2.4451-63.176 0.2164-10.834 0.3518-21.679-0.099-32.508-0.1298-3.5756-0.5317-7.139-1.2854-10.638-1.448-7.9628-2.4379-16.06-2.1786-24.166 0.1126-2.8041 0.3742-5.7219 1.862-8.1784 1.8936-3.4901 5.7602-5.7827 9.7374-5.7081 2.9898-0.049 5.8141 1.1297 8.3773 2.5668 6.8339 3.6612 13.122 8.2368 19.348 12.831 8.0299 5.9909 15.778 12.349 23.836 18.304 16.799 12.589 33.76 24.939 50.79 37.212 16.647 11.976 33.258 24.003 49.586 36.411 8.5738 6.5079 17.105 13.074 25.441 19.886 5.3548 4.2959 10.662 8.7751 16.787 11.95 1.8568 0.9242 3.9104 1.5029 5.9937 1.5049 6e-4 -1.8697-0.398-3.7831-1.5237-5.313-0.5663-0.9539-1.2589-1.9395-1.8594-2.7209-2.7537-3.5447-5.9026-6.7575-8.9646-10.032-2.7738-2.9101-5.7098-5.8787-8.6286-8.7295-8.9206-8.7083-18.504-16.936-28.097-25.003-11.903-9.972-24.097-19.596-36.606-28.798-20.831-15.417-41.536-30.998-62.428-46.332-9.9346-7.166-20.134-13.932-30.483-20.438-8.5159-5.2894-17.39-10.28-25.8-15.85-3.6435-2.4282-7.4021-4.7619-10.597-7.7793-2.1158-2.1925-2.9551-5.2972-2.9903-8.279-2.3818-24.177-4.8889-48.348-6.4844-72.592-0.1157-2.8394-0.3505-5.8079 0.659-8.5214 1.5301-3.874 5.6493-6.4455 9.7895-6.2815 3.1603 0.044 6.1637 1.1651 9.1961 1.9285 11.988 3.403 23.77 7.4713 35.587 11.414 28.316 9.5476 56.463 19.59 84.461 30.03 14.771 5.5425 29.453 11.351 43.755 18.022 26.756 12.285 52.538 26.639 77.323 42.517 15.862 10.151 31.405 20.802 46.594 31.934 16.393 12.074 32.36 24.731 47.796 38.006 7.4719 6.48 14.862 13.077 21.744 20.188 2.881 3.0094 5.4909 6.2626 8.0217 9.5663 0.9476 1.1411 2.2847 2.0337 3.8101 2.0533 0.5254 0.03 1.3563 0.3306 1.1032-0.5158 0.01-3.3363 0.053-6.6832-0.2049-10.011-0.244-2.4132-1.2505-4.6907-2.735-6.5949-2.9677-4.0959-6.446-7.777-9.7841-11.491-2.5091-2.7194-5.1083-5.3541-7.7601-7.9342-0.9726-0.9332-2.1166-2.0344-3.1756-3.0109-10.585-9.7777-21.607-18.979-32.862-27.952-17.784-14.184-36.063-27.805-54.83-40.729-10.196-7.0042-20.564-13.806-31.194-20.011-10.681-6.2427-21.637-12.202-32.768-17.707-27.706-13.691-56.8-24.622-85.968-34.947-32.501-11.481-65.378-21.896-97.989-33.082-9.5504-3.3313-19.155-6.6082-28.297-10.969-5.3043-2.5978-10.541-5.9618-13.76-11.049-2.1157-3.2656-3.2454-7.0336-4.0795-10.801-1.3366-5.3531-2.9008-10.654-3.8964-16.086-1.578-8.419-2.664-16.981-2.4334-25.562 0.194-4.3925 0.4635-8.9183 2.3043-12.982 1.6565-3.7971 4.3811-7.0922 7.7598-9.4829 2.8605-2.1622 5.8401-4.1875 8.4196-6.6943 6.6558-5.9774 12.631-12.666 18.311-19.565 0.9389-1.1592 2.0294-2.4891 3.013-3.7262 7.315-9.1523 14.084-18.749 20.13-28.788 2.0363-3.4022 4.0873-6.9926 5.9006-10.593 3.6668-7.2912 7.0617-14.817 9.7762-22.569 3.7442-10.611 5.7781-21.743 6.9316-32.913 0.4785-4.559 0.8301-9.0823 1.0881-13.563 0.3711-6.189 0.5925-12.346 0.7692-18.511 0.4437-17.05 0.5088-34.109 0.4169-51.165-0.1042-10.382-0.3025-20.685-0.9279-31.042-0.4895-8.1423-1.2351-16.263-2.5196-24.382-1.5617-9.9415-4.1138-19.971-7.5233-29.473-3.4323-9.6215-7.5181-18.923-11.323-28.422-3.7969-9.2991-7.471-18.65-11.355-27.912-3.3133-6.7476-8.2599-12.512-13.344-17.981-8.8169-9.2314-18.75-17.343-29.165-24.699-9.7067-6.7576-19.892-12.867-30.602-17.902-3.655-1.6987-7.3413-3.248-11.179-4.6203-1.2574-0.45005-2.5659-0.8946-3.7426-1.2662-6.2916-1.9721-12.744-3.3655-19.135-4.9668-2.3248-0.61474-4.7026-1.0696-6.9724-1.8697-4.4452-1.8452-7.0992-6.8032-6.7171-11.522 0.2828-3.7265 1.7513-7.2391 3.3187-10.589 3.7977-7.774 8.5077-15.05 12.918-22.48 4.9178-8.1997 9.6826-16.49 14.467-24.768 14.617-25.47 28.787-51.263 42.686-77.168 8.8853-16.631 17.617-33.28 25.832-50.277 4.2819-9.1168 7.924-18.521 12.34-27.577 2.6247-5.4836 5.5746-10.802 8.6445-16.047 8.8379-15.641 17.145-31.524 25.514-47.407 6.2697-11.999 12.547-23.997 18.529-36.142 2.0646-4.346 3.9931-8.792 5.7936-13.187 7.1438-17.512 13.094-35.49 18.412-53.633 4.5684-15.705 8.6191-31.52 11.894-47.558 0.8093-3.9738 1.5703-8.0627 2.252-11.994 1.3964-8.222 2.4552-16.379 3.2028-24.703 1.2467-13.067 2.0916-26.143 2.7952-39.274 0.6499-12.521 1.1787-25.177 1.5512-37.718 0.9345-31.6 1.2987-63.226 0.4932-94.833-0.1691-6.6338-0.4125-13.246-0.7651-19.898-0.1932-3.448-0.4017-7.0735-0.6897-10.521-0.4873-6.1353-1.2079-12.219-2.0763-18.245-0.8576-6.0323-1.8994-12.195-3.0387-18.156-2.6914-14.053-6.0478-28.11-10.335-41.814-2.4004-7.5802-5.1019-15.207-8.699-22.364-2.1851-4.0466-5.1858-7.5681-7.5766-11.487-3.9801-6.1856-7.4716-12.664-11.07-19.074-1.6296-2.7798-3.4565-5.4752-5.3636-7.9841-5.2573-6.9019-11.408-13.099-18.095-18.617-2.8963-2.3925-6.1291-4.8388-9.2225-6.9949-8.2015-5.7117-16.969-10.564-25.91-15.009-4.428-2.0778-9.3083-3.1139-14.171-3.2989-2.6026-0.16714-5.4117-0.26593-8.0967-0.32768-5.6877-0.10656-11.377-0.07408-17.065-0.0829zm0.3106 36.9c1.4747 0.27527 3.0207 0.24752 4.4202 0.64324 4.7302 1.058 8.9437 3.5774 13.124 5.9259 9.5768 5.6255 18.521 12.282 26.975 19.472 4.64 4.0023 8.9663 8.4418 12.291 13.615 12.18 17.781 23.766 36.233 31.367 56.498 3.9272 10.496 7.0775 21.283 9.5137 32.22 0.7515 3.8128 1.6516 7.688 1.3285 11.599-0.3895 4.3487-3.7696 8.2619-8.0684 9.1404-4.1982 0.95661-8.6849-1.1991-11.01-4.7322-2.5099-4.1459-3.8192-8.8593-5.6739-13.307-0.2097-0.48326-0.5546-1.278-0.8412-1.867-2.3865-4.9597-5.9346-9.6492-10.987-12.1-6.5439-3.1937-13.967-3.7072-21.134-3.809-2.3305-0.0179-4.6208 0.0469-6.9074 0.13185-0.7796 0.0452-1.8643 0.0985-2.761 0.14681-4.6101 0.27092-9.2694 0.32036-13.835 1.279-2.3111 0.437-4.3759 1.6558-6.1325 3.1846-2.3147 1.98-4.5886 4.074-6.219 6.6746-4.9934 7.7076-9.3175 15.823-13.567 23.958-11.582 22.445-22.205 45.374-32.382 68.486-7.5087 17.17-14.739 34.47-21.304 52.025-3.9234 10.608-7.4495 21.357-11.19 32.03-6.8172 19.63-13.653 39.254-20.615 58.834-4.1988 11.801-8.3309 23.524-12.164 35.44-1.8629 5.7838-3.6696 11.68-5.369 17.586-5.1036 17.937-9.2255 36.282-13.22 54.549-5.2737 24.231-10.114 48.615-13.907 73.145-2.4913 16.406-4.6975 33.014-5.777 49.634-0.1916 2.9916-0.3577 6.2613-0.4554 9.2375-0.1402 4.5843-0.1787 9.1742 0.01 13.758 0.064 1.3812 0.1674 2.9901 0.2894 4.458 0.3461 3.9902 0.7919 8.0442 2.2129 11.815 1.1097 2.2885 2.7671 4.2648 3.8233 6.5863 3.7736 7.3681 6.0943 15.357 8.1946 23.332 0.9663 3.2596 1.9057 6.5846 3.5935 9.5574 0.7215 1.2596 1.8596 2.2754 3.276 2.6664 3.1255 1.0621 6.4747 1.0383 9.7314 1.2845 6.788 0.0997 13.593 0.27905 20.369-0.24562 2.0463-0.2011 4.0865-0.94386 5.545-2.4382 3.7384-3.247 6.9398-7.044 10.372-10.601 6.764-7.231 13.464-14.525 19.921-22.032 2.2127-2.4273 4.3032-5.3409 7.5105-6.5763 3.3119-1.4455 7.4114-1.0651 10.232 1.2598 3.0675 2.3987 4.6336 6.7148 3.6991 10.442-1.1559 5.5292-3.542 10.694-5.8314 15.825-5.644 12.387-12.225 24.333-17.531 36.878-4.1302 9.4173-7.8336 19.015-11.372 28.668-3.0846 7.9408-6.6574 15.737-11.268 22.917-2.13 3.1861-4.7301 6.03-6.7295 9.3074-4.4121 6.88-8.2798 14.099-11.84 21.452-4.2403 8.84-8.1449 18.052-13.547 26.337-4.5209 7.171-11.042 13.283-19.011 16.387-8.5907 3.514-17.918 4.424-27.055 5.4737-6.8107 0.73314-13.731 1.4974-20.422 2.633-2.6167 0.44201-5.085 0.94562-7.6973 1.4805-1.5698 0.33853-3.355 0.73203-5.0006 1.1198-12.113 2.8714-24.003 6.7233-35.643 11.009-7.2598 2.6526-14.449 5.3736-21.581 8.4003-1.4162 0.61726-3.0492 1.3046-4.531 1.9895-10.04 4.5104-19.675 10.097-28.002 17.342-7.282 6.2457-14.021 13.085-21.051 19.606-7.7063 7.3168-15.504 14.542-23.061 22.016-9.8823 10.194-18.109 22.018-24.043 34.926-3.2842 7.1041-5.8621 14.711-7.7721 22.366-1.4676 5.7522-2.2227 11.656-2.643 17.57-0.7237 9.3069-1.1927 18.633-1.497 27.916-0.5759 17.813-0.5362 35.638-0.5626 53.458 0.064 7.4062 0.072 14.828 0.7462 22.21 0.4667 5.0153 1.5185 9.9783 3.2653 14.707 2.2622 6.3678 4.8951 12.597 7.5003 18.83 3.5667 8.3542 7.6708 16.588 13.423 23.676 6.6489 8.2984 14.355 15.663 21.988 23.039 7.5907 7.2638 15.153 14.477 22.941 21.52 10.319 9.2779 21.152 18.082 33.095 25.202 13.091 7.8827 27.15 13.979 41.248 19.802 9.6011 3.9193 19.285 7.5348 29.155 10.801 23.139 7.6937 47.119 13.479 71.398 16.45 3.979 0.4913 8.1341 0.9175 12.126 1.2553 6.3839 0.5363 12.854 0.9015 19.193 1.0366 11.887 0.3465 23.831-0.3686 35.666 1.0724 5.2024 0.7221 10.539 2.5741 14.146 6.5625 3.52 3.8756 4.9148 9.1766 5.2238 14.293 0.3527 4.0949 0.6072 8.2175 0.4038 12.325-0.4613 4.5029-3.4218 8.8408-7.7947 10.324-4.0294 1.5048-8.429 0.6466-12.43-0.5043-7.4444-2.0006-14.854-4.4522-22.174-6.6624-10.922-3.2538-21.949-6.4706-32.978-9.1328-5.2744-1.2666-10.594-2.4289-15.873-3.4174-6.0577-1.1285-12.015-2.0366-18.127-2.7048-4.1491-0.468-8.1725-0.7956-12.353-1.0723-2.8812-0.1801-5.9741-0.3412-8.9429-0.4493-12.525-0.4311-25.063-0.4117-37.589-0.067-6.2584 0.1803-12.65 0.4519-18.952 0.8368-2.7013 0.1558-5.4226 0.3673-8.0094 0.5792-4.5916 0.4116-9.1812 0.9107-13.704 1.8246-5.9229 1.1659-11.936 1.7479-17.927 2.4466-18.446 1.9918-36.968 3.1923-55.491 4.2033-13.72 0.7898-27.403 1.6157-41.059 3.2757-0.8628-0.1559-0.7538 0.5347-0.7176 1.1619 0.024 0.6246 0.053 1.2488 0.1133 1.8711 3.0608 0.4026 6.0241 0.3546 9.1023 0.4431 10.802 0.1346 21.603-0.1633 32.403-0.3538 18.769-0.4212 37.505-1.2866 56.251-2.7014 9.5819-0.7063 19.132-1.776 28.652-3.07 11.754-1.5225 23.504-3.1277 35.317-4.1308 7.8522-0.7072 15.772-0.9196 23.626-0.1085 18.006 1.958 35.568 6.5729 53.07 11.065 22.887 5.9908 45.686 12.35 68.227 19.536 5.6475 1.8498 11.332 3.6819 16.702 6.2493 3.419 1.8555 5.9175 5.1054 7.2484 8.7231 2.0468 5.0257 2.4973 10.504 2.6358 15.876 0.367 6.7464 1.8697 13.392 3.9778 19.798 2.6632 8.3115 4.7904 16.812 6.1024 25.445 0.5887 4.0122 0.8927 8.3862-1.0935 12.082-1.9865 3.7625-6.1196 6.2612-10.383 6.21-4.4954 0.071-8.6736-1.8655-12.73-3.5712-10.753-4.7195-21.314-10.104-32.745-13.037-3.2355-0.8818-6.4785-1.6516-9.6683-2.3471-4.8389-1.045-9.8866-2.0023-14.794-2.8931-17.165-3.1387-34.416-5.8077-51.512-9.3211-13.501-2.6618-26.906-5.783-40.416-8.4026-7.8399-1.439-15.703-2.8227-23.639-3.6167-4.3665-0.3495-8.7613-0.3258-13.106-0.9382-15.974-1.8164-31.754-4.9592-47.487-8.2106-10.025-1.9321-20.017-3.5389-30.15-4.7277-3.3429-0.3644-6.689-0.7322-10.05-0.884-1.5259-0.071-3.3123-0.094-4.9855-0.088-0.9078 0.016-1.816 0.016-2.7235 0.051 0.1383 1.8866 0.2567 3.7749 0.4375 5.6582 6.5273 1.7331 13.237 2.6092 19.861 3.8761 15.37 2.7292 30.647 5.9814 46.056 8.4948 7.8404 1.1915 15.717 2.285 23.65 2.5734 5.4883 0.2216 10.906 1.1792 16.318 2.0567 16.783 2.8682 33.297 7.0651 50 10.343 14.272 2.9103 28.584 5.6013 42.919 8.1155 14.413 2.5888 28.91 5.2164 42.742 10.156 11.485 4.0767 22.49 9.3601 33.435 14.688 9.9082 4.8907 19.659 10.157 28.857 16.294 3.5503 2.474 7.2456 5.1981 9.0943 9.249 1.8613 3.9578 2.4381 8.345 3.1953 12.609 1.6289 10.626 2.3667 21.361 3.1393 32.075 1.4697 22.552 2.1677 45.145 2.692 67.736 0.7645 35.936 0.7786 71.887 0.2388 107.83-0.5721 34.086-1.7743 68.176-4.4465 102.17-1.2544 15.216-2.7888 30.435-5.5747 45.457-1.1939 6.0531-2.5969 12.139-5.21 17.758-1.8328 3.7601-4.8489 7.243-8.9829 8.4518-2.5944 0.809-5.3956 0.5938-7.9735-0.1592-3.2255-0.5908-6.5261-0.9247-9.7212-1.177-8.2035-0.6656-16.594-1.0544-24.884-1.3389-14.322-0.4222-28.852-0.6011-43.207-0.1204-4.2402 0.1658-8.509 0.3119-12.691 1.077-3.7984 0.9239-7.3522 2.6169-10.882 4.2586-6.555 3.1663-12.853 6.9707-18.805 11.048-3.8373 2.6114-7.6756 5.4913-11.113 8.4738-2.6453 2.3369-5.1801 4.8417-7.1365 7.7977-3.3368 4.7763-7.1403 9.2041-10.995 13.566-8.2961 9.2401-17.228 17.883-25.56 27.091-5.844 6.3948-11.468 12.999-16.666 19.933-0.4268 0.5922-0.9888 1.3293-1.4329 1.9515-10.715 14.794-18.825 31.314-26.563 47.753-7.9382 16.893-15.61 33.862-22.686 51.135-3.1139 7.6142-6.1806 15.418-9.0304 23.13-3.1771 8.5619-6.1573 17.196-8.9364 25.896-3.7397 11.831-7.1455 23.961-9.9671 36.117-5.5625 23.784-9.0111 48.045-10.558 72.417-0.6805 10.256-0.9945 20.469-1.1081 30.768-0.1105 7.2087-0.1609 14.421 0.096 21.628 0.089 2.8429 0.2585 5.8521 0.5228 8.7498 0.5023 5.7713 1.5611 11.641 3.0968 17.302 1.5411 6.1105 3.4186 12.217 3.73 18.55 0.06 4.6671-1.8583 9.4414-5.5609 12.381-4.7869 4.2301-11.012 6.6497-17.318 7.363-3.59 0.3067-7.1809 0.6123-10.744 1.1561-22.585 3.0255-45.005 7.4467-67.608 10.514-21.317 2.9954-42.699 5.6119-64.173 7.1881-22.343 1.6487-44.73 2.785-67.134 3.1166-16.369 0.2075-32.755-0.022-49.09-1.1522-8.4238-0.6346-16.811-1.7163-25.127-3.1973-16.385-2.6536-32.796-5.1509-49.162-7.9161-6.7083-1.1161-13.449-2.0571-20.125-3.3534-4.4942-1.0359-8.9829-3.2999-11.513-7.3001-2.0588-3.1551-2.5509-7.0069-2.6612-10.692-0.83222-7.1034-2.2529-14.119-3.4634-21.164-4.3724-24.152-9.5415-48.158-13.494-72.385-2.1523-13.062-4.1827-26.149-5.7577-39.295-0.72308-6.2594-1.4184-12.578-2.2272-18.749-3.1782-22.77-7.3411-45.425-12.018-67.972-2.0792-9.9279-4.282-19.852-6.6713-29.74-1.079-4.4343-2.216-8.9795-3.4389-13.363-5.87-21.091-13.19-41.75-21.082-62.161-6.636-16.985-13.741-33.806-21.903-50.119-3.7679-7.395-7.6986-14.774-12.816-21.341-4.54-5.9931-9.4318-11.74-14.446-17.277-5.4153-5.9142-11.196-11.746-17.398-16.951-2.2309-1.8071-4.5109-3.6712-7.19-4.7667-3.7072-1.3115-7.6162-1.9188-11.478-2.588-5.873-0.9415-11.862-1.5406-17.859-1.968-4.1332-0.2904-8.16-0.4439-12.333-0.4707-4.891 0.01-9.8437-0.029-14.647 1.0007-2.7425 0.9303-5.0627 2.7343-7.475 4.2817-8.8558 6.1855-16.847 13.515-24.459 21.154-5.0268 5.2009-9.9826 10.533-14.066 16.522-2.7076 4.1402-4.8076 8.6434-7.5712 12.75-3.312 5.0653-7.103 9.8797-11.667 13.878-3.3723 2.6859-8.2387 3.7381-12.246 1.8861-3.8495-1.6301-6.3736-5.2953-7.8475-9.0754-2.3512-5.3999-4.1056-11.031-6.1887-16.535-9.2901-25.78-18.828-51.485-27.052-77.631-4.8984-15.771-8.915-31.866-10.982-48.27-1.699-12.79-2.4515-25.681-3.8895-38.5-1.14-9.5763-2.4933-19.151-4.7258-28.541-0.90673-3.5197-2.4307-6.8595-3.0733-10.451-1.468-7.0696-2.153-14.27-2.944-21.438-1.6669-16.551-2.5657-33.169-3.2911-49.784-0.87508-21.074-1.3392-42.189-0.43377-63.27 0.43923-8.5124 1.6753-16.955 2.3469-25.448 0.90785-10.518 1.6467-21.078 2.3402-31.576 0.66614-10.536 1.1664-21.085 1.9882-31.611 0.62994-6.7935 1.4154-13.782 4.5133-19.962 2.2199-4.3908 5.6946-8.0925 9.8425-10.721 5.4417-3.5944 11.525-6.0248 17.403-8.7898 40.09-18.244 81.293-34.072 123.39-47.047 27.269-8.3662 54.926-15.532 82.93-20.981 15.143-2.8507 30.478-4.6124 45.856-5.5378 19.981-1.269 40.012-1.4346 60.002-2.5188 4.0549-0.2228 8.2239-0.4367 12.268-1.1543-0.0576-0.7743-0.11644-1.5483-0.17774-2.3223-5.4066-0.9835-10.924-1.0372-16.4-1.2649-14.353-0.3802-28.799-0.7801-43.19-0.4338-6.2403 0.1444-12.453 0.418-18.676 0.7814-4.4116 0.2717-8.985 0.6002-13.453 0.9865-6.1562 0.5362-12.45 1.1937-18.641 1.9572-8.3273 1.0222-16.658 2.2549-24.976 3.6744-6.1856 1.0648-12.336 2.2162-18.517 3.4896-22.389 4.5967-44.627 10.542-66.475 17.419-23.861 7.5086-47.512 16.2-70.725 25.583-12.904 5.1585-25.622 10.779-38.608 15.73-3.2973 1.2119-6.5881 2.4712-9.9689 3.4279-3.5688 0.8257-7.6755-0.013-10.18-2.8184-2.663-2.7579-3.353-6.8758-2.7454-10.552 0.7932-7.4843 2.4817-14.832 3.953-22.203 3.1046-14.863 6.597-29.648 10.531-44.314 1.1982-4.2966 2.4136-8.6173 4.2111-12.707 1.5772-3.0622 4.408-5.3012 7.5417-6.6276 4.6598-2.1542 9.6366-3.4987 14.547-4.9457 11.933-3.3149 24.056-5.8876 36.177-8.4042 26.067-5.2844 52.343-9.5306 78.737-12.807 13.838-1.672 27.759-2.7271 41.701-2.8432 17.285-0.2201 34.566 0.3829 51.838 0.9409 31.51 1.1715 63.007 3.3995 94.263 7.6336 11.966 1.6233 23.88 3.6797 35.643 6.4278 4.8769 1.051 9.832 1.759 14.815 2.0265-3e-3 -2.7995 0.0529-5.6163-0.29883-8.3985-3.7475-0.8499-7.9081-1.5886-11.772-2.2052-14.404-2.2627-28.887-4.1691-43.352-5.9023-27.078-3.1832-54.285-6.0065-81.539-7.6124-6.1637-0.3729-12.358-0.6668-18.568-0.8641-12.32-0.3887-24.752-0.4466-37.114-0.182-16.586 0.3565-33.291 1.3022-49.87 2.7948-22.471 2.0157-44.888 5.0993-67.135 9.1315-13.143 2.3497-26.291 4.7033-39.338 7.547-2.3096 0.493-4.5894 1.17-6.9277 1.5011-5.191 0.4598-10.486-3.1619-11.706-8.274-1.2199-4.2041-0.11479-8.5906 0.87104-12.72 2.4788-9.7315 5.8296-19.209 8.7063-28.825 3.1704-10.358 6.2653-20.819 9.0231-31.325 1.3872-5.4643 2.4089-11.035 4.2656-16.369 1.3029-3.629 3.6674-7.0887 7.2432-8.7682 3.7362-1.813 8.2696-1.4815 11.899 0.4384 4.2538 2.0976 7.7303 5.3926 11.442 8.2818 4.9102 3.9763 9.9038 7.8636 15.184 11.341 11.899 7.9666 24.918 14.573 38.455 19.449 23.196 8.4218 47.918 12.008 72.523 12.463 6.5945 0.1221 13.212 0.032 19.752-0.2566 7.766-0.3535 15.502-0.9235 23.201-1.7448 6.1212-0.6391 12.411-1.4532 18.582-2.3132 16.339-2.2888 32.786-4.8685 48.936-8.2199 8.4913-1.7615 17.026-3.7592 25.33-6.063 19.514-5.4418 39.015-12.817 55.541-24.891 2.364-1.7227 4.6764-3.5567 6.8363-5.4202 6.6108-5.5857 12.348-12.104 17.793-18.806 10.635-12.784 21.644-25.25 32.47-37.87 9.7746-11.781 17.959-24.987 23.32-39.361 1.4948-3.9482 2.8248-8.0466 3.9538-12.031 4.3058-15.208 6.4939-30.922 7.9831-46.628 1.3172-14.46 2.0635-29.05 2.5194-43.596 0.1984-7.1631 0.4374-14.332 0.2214-21.497-0.026-0.7089-0.052-1.5247-0.094-2.23-0.068-1.3168-0.1479-2.5471-0.2574-3.7939-0.05-0.6716-0.1569-1.5472-0.2126-2.1734-0.7628-6.9824-2.6705-13.777-4.8282-20.441-0.1991-0.5662-0.4944-1.4518-0.7304-2.1405-1.3664-3.9792-2.9656-8.038-4.5645-11.824-2.5332-5.9708-5.3071-11.862-8.7873-17.346-4.1197-6.8286-7.7743-13.989-10.231-21.594-0.8116-2.4287-2.4417-4.447-3.9176-6.4982-3.7266-4.8635-8.0952-9.1889-12.488-13.444-14.277-13.411-29.935-25.277-46.128-36.267-10.934-7.3572-22.251-14.351-33.912-20.374-8.7288-4.4758-17.741-8.6284-27.358-10.782-5.5841-1.3188-11.279-2.1224-16.99-2.6336-1.1489-0.0893-2.5529-0.21073-3.8014-0.28235-6.8029-0.43948-13.731-0.4765-20.478-0.27234-4.0048 0.13291-7.9471 0.34848-11.905 0.65279-9.8335 0.75013-19.78 2.0177-29.398 3.5914-7.0298 1.1562-14.205 2.5481-21.143 4.0488-7.6177 1.667-15.213 3.5261-22.676 5.548-17.827 4.8443-35.487 10.723-52.711 17.527-6.981 2.7007-13.895 5.9869-21.413 6.8523-4.7439 0.69276-9.9054-0.55925-13.388-3.9627-4.3867-4.2268-7.7132-9.3794-11.052-14.434-5.6414-8.8434-10.754-18.038-15.113-27.582-1.75-3.9728-3.2096-7.961-5.2338-11.814-3.8426-7.574-8.4237-14.774-13.152-21.768-5.9612-8.7389-11.293-17.886-16.551-27.06-3.8199-6.8144-7.5656-13.683-10.831-20.784-5.8605-12.865-10.778-26.13-15.686-39.38-9.6166-26.404-18.389-53.113-26.355-80.06-3.3698-11.614-6.618-23.278-9.0728-35.125-1.1782-6.2472-1.765-12.593-2.1053-18.936-0.23278-5.1411 0.42389-10.465 2.9287-15.036 2.4625-4.6672 6.2449-8.4216 9.7363-12.312 2.6699-2.8054 5.2647-5.6903 8.0697-8.3625 2.9613-2.8134 6.6531-5.2996 10.874-5.3943 3.8529-0.14983 7.7123 1.5615 10.173 4.5332 2.7875 3.0986 4.4222 6.9891 6.2947 10.66 4.0562 8.6246 7.28 17.606 10.7 26.492 6.4701 17.122 12.453 34.42 18.542 51.679 6.9997 19.608 14.395 39.029 22.393 58.271 4.7509 11.438 9.866 22.871 15.979 33.708 6.0068 10.737 12.69 21.279 19.654 31.502 7.9188 11.551 16.243 22.845 25.344 33.498 3.4451 3.9333 6.9406 7.8539 10.878 11.306 1.5712 1.3955 3.3966 2.5462 5.4705 3.0046 5.8517 1.5184 11.981 1.7657 17.977 1.1229 0.35032-0.0465 1.157-0.14122 1.6789-0.2245 3.8171-0.56537 7.7626-1.5568 10.754-4.1338 3.6858-3.217 5.7056-7.913 6.8144-12.588 0.85961-3.5762 1.2333-7.2494 1.4085-10.917 6e-3 -0.38691 0.0364-1.2002 0.0518-1.7503 0.16383-8.0374-0.84967-16.043-2.1768-23.955-0.13061-0.69199-0.30848-1.7284-0.44572-2.4508-2.0592-11.112-5.2319-21.973-8.4361-32.796-3.2055-10.757-6.0394-21.621-8.7539-32.51-2.2319-8.9003-4.2123-17.86-6.2037-26.816-3.6546-15.372-8.335-30.48-13.326-45.465-8.1497-24.296-17.296-48.251-27.118-71.919-9.5791-22.984-19.836-45.786-31.024-68.071-2.5575-4.9842-4.9287-10.155-8.0873-14.841-1.3878-1.9702-2.9212-4.2147-5.4289-4.7775-2.2581-0.4527-4.8047-0.34349-6.9847-0.2133-1.4997 0.10064-2.9982 0.21891-4.4922 0.38476-0.16964 1.583-0.30719 3.114-0.4025 4.6327-0.15578 2.2444-0.24967 4.6728-0.29809 6.9504-0.0421 5.6476 1.8515 11.082 4.139 16.172 3.454 7.8904 7.5756 15.463 11.29 23.229 28.072 57.104 51.939 116.55 67.139 178.44 2.4705 10.004 4.6535 20.076 6.7881 30.157 0.19961 0.84428 0.45764 1.9753 0.67969 2.9297 2.278 9.4514 4.8814 18.858 8.5119 27.889 1.1679 2.9324 2.6607 5.7143 4.2251 8.45 3.6824 6.8179 6.5738 14.266 7.0144 22.07 0.17788 4.5059-1.3387 9.3042-4.9194 12.226-4.2313 3.505-11.013 3.5494-15.12-0.18694-5.0231-3.9563-9.2119-8.8251-13.538-13.501-9.3542-10.361-18.285-21.118-26.503-32.405-7.0813-9.9793-12.915-20.767-18.586-31.588-7.1463-13.864-13.691-28.033-19.874-42.35-6.0759-14.2-11.606-28.629-16.667-43.221-7.0379-19.665-13.921-39.488-21.623-58.945-3.0282-7.5866-6.4425-15.038-10.025-22.338-4.2604-8.7066-8.069-17.77-9.7552-27.364-0.68219-4.4601 0.0284-8.9789 1.0422-13.33 2.4253-11.167 6.3378-21.927 9.9494-32.747 3.1853-9.7782 5.4295-19.844 7.1523-29.975 0.54499-3.3 1.0504-6.6764 1.4431-9.9159 0.38948-3.0917 0.71566-6.3541 0.94918-9.3115 0.1833-2.5328 0.34541-5.0662 0.40235-7.5586 0.0733-2.5773 0.0554-5.3412-0.0508-7.8008-0.0551-1.124-0.1068-2.0191-0.19336-3.1406-0.0352-0.35653-0.10479-1.1029-0.165-1.6039-0.2404-1.5146-0.31589-3.115-0.93263-4.5273-1.3416-1.4578-3.2788-2.1471-5.0388-2.9572-3.5333-1.4103-7.3016-2.1413-11.078-2.4995-0.4205-0.0384-1.0314-0.0898-1.5323-0.11773-1.8012-0.0899-3.6079-0.18708-5.4111-0.11079-1.6399 4.0111-2.4738 8.2864-3.5706 12.464-1.8889 7.7714-3.8473 15.555-6.7893 23.008-5.6492 14.685-14.119 28.065-23.122 40.893-4.8909 6.9939-9.9415 13.878-14.663 20.989-0.62041 0.94417-1.3211 2.0005-1.9346 2.9688-2.1215 3.3694-4.2767 6.6994-6.079 10.246-0.95427 2.1041-1.6794 4.3097-2.7839 6.3472-3.1539 6.1663-7.1803 11.827-11.102 17.518-8.2168 11.641-17.102 22.808-26.52 33.498-3.8204 4.2699-7.7832 8.4683-12.342 11.962-2.7284 1.9769-6.1178 3.1396-9.5073 2.8265-7.7976-0.18509-15.508-1.6655-23.045-3.5926-12.229-3.2408-24.042-7.9585-35.329-13.651-9.6018-4.9152-18.831-10.664-27.074-17.646-6.0173-5.1674-11.201-11.29-15.319-18.068-7.8998-12.622-13.211-26.662-17.496-40.865-6.1459-20.728-9.7219-42.149-11.706-63.655-1.3597-15.117-1.6915-30.307-1.5716-45.479 0.0133-10.848 0.24809-21.892 3.456-32.348 2.838-9.331 7.3708-18.009 11.621-26.749 10.475-21.031 20.929-42.189 34.194-61.64 4.9896-7.1792 10.458-14.173 17.327-19.657 3.3074-2.4681 6.8144-4.6715 9.9418-7.377 6.8436-5.5378 13.21-11.632 19.418-17.865 5.2024-5.1238 10.941-9.929 17.761-12.732 7.7622-3.323 16.12-4.8174 24.308-6.6878 9.3207-1.975 18.855-3.1599 28.395-2.7898 11.671 0.2648 23.283 1.5698 34.893 2.6921 11.572 1.2006 23.269 2.6076 34.258 6.6267 8.658 3.1224 16.898 7.2615 25.174 11.258 10.745 5.2834 21.341 10.974 31.084 17.97 7.4159 5.2416 14.271 11.251 20.562 17.795 12.693 13.157 23.356 28.073 33.846 42.995 9.8017 14.086 19.38 28.333 28.534 42.85 14.286 22.725 27.531 46.172 38.38 70.747 5.5891 12.741 10.336 25.853 14.107 39.246 6.0615 20.056 12.883 39.9 19.676 59.763 5.2346 15.592 10.177 31.294 14.254 47.232 1.8917 7.7943 3.5116 15.656 5.4595 23.43 2.461 10.051 5.1919 20.231 8.0628 30.186 4.5888 15.813 7.4814 32.049 10.285 48.255 5.0968 30.043 8.7958 60.298 12.22 90.571 0.98248 8.1251 2.2494 16.275 4.0828 24.315 0.75803 3.2405 1.6464 6.5119 3.3571 9.3967 4.3018 0.21429 8.5936-0.30981 12.887-0.50021 2.4641-0.1606 4.9261-0.36791 7.3747-0.6912 0.48085-0.071 1.2971-0.18648 1.9098-0.29891 4.0137-0.66181 7.9273-2.0001 11.395-4.1451 4.0831-2.464 7.8872-5.4004 12.211-7.4554 11.383-5.8408 23.244-10.684 35.16-15.317 12.66-4.8167 25.506-9.1234 38.214-13.811 11.74-4.2426 23.459-8.6853 35.057-13.272 11.599-4.4007 23.447-8.1917 35.538-10.993 6.5718-1.3582 13.218-2.3303 19.779-3.7469 4.417-0.88935 8.8194-1.8515 13.206-2.8832 1.4716-0.35378 3.1561-0.78543 4.7171-1.1488 8.8875-2.1693 18.006-3.1933 27.112-3.8995 13.37-0.98627 26.785-1.0545 40.185-1.1114 10.145-2e-3 20.294-0.014 30.434 0.33797 8.9439 0.39968 17.924 1.6355 26.4 4.614 8.283 2.7595 16.307 6.2203 24.465 9.3179 13.308 5.2988 26.143 11.797 38.222 19.503 16.068 10.03 31.376 21.198 47 31.89 3.4135 2.2555 6.8572 4.5181 10.584 6.2261 3.0064 1.3126 6.2966 1.8121 9.5598 1.8165 3.881 0.14513 7.7912 0.0936 11.607-0.0459 2.0535-0.10388 4.226-0.0684 6.116-0.9884 1.2081-1.3723 1.4099-3.2861 1.8976-4.9815 1.2149-6.1654 1.4287-12.469 1.6883-18.731 0.5898-18.529 0.1968-37.257 0.5284-55.862 0.4503-26.32 1.9747-52.75 7.2297-78.598 2.2504-11.343 5.3191-22.503 8.6655-33.566 1.7349-5.7361 3.1195-11.562 4.5215-17.351 5.8255-24.655 11.246-49.378 16.594-74.146 4.9484-23 9.7256-46.029 14.513-69.058 5.1725-24.314 11.167-48.445 17.356-72.518 5.5091-21.317 11.202-42.591 17.464-63.701 1.8768-6.1544 3.6704-12.345 5.9376-18.369 1.6808-4.2427 3.4741-8.4455 4.8523-12.8 3.064-9.105 5.4579-18.416 7.7166-27.747 4.4632-17.663 10.795-34.84 18.72-51.24 8.266-17.281 18.072-33.767 28.116-50.058 4.1392-6.7904 7.4936-13.978 11.856-20.658 3.2327-4.9571 7.0081-9.5666 11.346-13.598 2.5441-2.6837 4.8266-5.7043 6.9144-8.6486 3.5917-5.1517 6.7486-10.61 10.682-15.522 6.0938-7.8384 12.984-15.092 20.715-21.333 3.733-2.8878 7.7784-5.597 12.389-6.8237 0.5813-0.10358 1.1349-0.25423 1.638-0.5603 0.3453-0.09166 0.7034-0.15858 1.0609-0.10818zm36.73 128.3c8.1481 0.27797 15.723 5.1297 20.122 11.876 4.903 7.1997 7.1417 15.816 8.4369 24.327 2.2211 15.027 1.5731 30.297 0.2792 45.377-1.7398 19.502-5.1919 38.814-9.5578 57.889-4.5643 20.141-9.8369 40.116-15.306 60.028-10.858 39.214-22.896 78.09-35.675 116.72-7.0135 21.083-14.228 42.105-21.998 62.923-7.1871 19.028-15.224 37.764-24.803 55.72-3.1079 5.9132-6.422 11.718-9.5836 17.601-1.0783 2.1539-2.436 4.1532-3.6155 6.252-8.0038 13.397-16.613 26.449-26.094 38.85-4.1845 5.3169-8.4159 10.599-12.767 15.78-2.6865 3.1325-5.9481 6.1698-10.124 7.0132-4.0987 0.85913-8.6094-0.6215-11.311-3.8458-3.0813-3.4721-4.0823-8.1556-5.0461-12.561-1.6789-8.0282-2.7616-16.164-4.1651-24.242-1.7372-10.253-3.7075-20.461-6.0192-30.63-0.5439-2.4625-1.3069-4.8656-2.0383-7.2751-1.7169-6.5107-1.0354-13.327-0.2345-19.92 1.2771-9.6351 3.3178-19.146 5.3096-28.653 3.0215-13.971 6.2577-27.896 9.6659-41.778 8.702-34.87 19.465-69.202 31.471-103.07 6.471-18.181 13.47-36.171 20.827-54.011 3.1424-8.008 6.305-16.023 8.746-24.279 2.2589-7.2395 5.1675-14.252 7.9662-21.294 6.4058-15.699 12.857-31.396 20.208-46.681 1.7557-3.1845 3.6587-6.2914 5.1672-9.6062 10.854-21.941 19.832-44.989 31.756-66.478 4.0241-7.0345 8.1706-14.185 14.111-19.803 3.8107-3.6534 8.8884-6.3312 14.274-6.2276zm57.582 55.918c3.1796 0.0459 5.8797 2.2452 7.629 4.7402 1.6557 2.4933 1.9205 5.5581 2.0643 8.4644 0.8303 11.633 0.4553 23.308 0.035 34.95-0.8603 22.039-2.3042 44.053-4.0601 66.038-1.1693 14.234-2.4127 28.466-4.0807 42.651-2.2537 17.539-6.4279 34.766-11.205 51.771-6.7311 23.705-14.905 47.013-24.7 69.627-4.386 10.131-9.2446 20.056-14.526 29.75-8.4564 15.563-16.731 31.239-25.939 46.377-1.767 2.7968-3.7935 5.7497-6.9982 7.008-3.8399 1.5884-8.7561 0.65985-11.376-2.68-1.4838-1.4513-2.286-3.4561-2.4448-5.5056-0.3471-3.8235 1.3895-7.3769 2.4246-10.96 5.5228-17.346 11.334-34.591 16.845-51.936 11.757-37.616 22.72-75.477 33.384-113.42 5.0601-18.124 10.027-36.276 14.637-54.52 0.942-3.8264 1.7905-7.719 2.4794-11.529 3.0128-16.652 5.6476-33.37 8.1399-50.107 2.0561-13.762 4.0122-27.626 5.6387-41.483 0.4474-3.6775 0.6564-7.3924 1.3162-11.039 0.8364-3.309 3.1498-6.4714 6.4912-7.5314 1.3241-0.26228 2.7709-0.72265 4.246-0.66992zm-847.77 657.5c7.1289-0.016 14.19 1.235 21.091 2.9401 10.086 2.2014 20.383 4.0149 30.63 5.7254 7.1002 1.109 14.162 2.5292 21.047 4.6096 9.8098 2.9039 19.259 7.0716 27.895 12.571 14.154 8.885 26.433 20.358 38.279 32.056 9.0557 9.009 17.927 18.209 26.498 27.68 8.1634 9.1199 15.814 18.954 20.687 30.269 3.8541 8.9117 6.2926 18.348 8.5452 27.767 4.4524 19.501 5.7026 39.678 4.2695 59.611-1.2685 16.552-4.3305 33.044-9.9786 48.684-2.2341 6.0874-4.8075 12.073-8.0042 17.72-4.1067 6.9654-9.1999 13.279-14.312 19.52-9.7617 11.668-20.218 22.75-31.173 33.304-6.2866 5.9871-12.752 11.816-19.71 17.018-3.3924 2.5156-7.0645 4.652-10.957 6.2948-4.4551 2.1766-8.5976 4.951-12.607 7.7689-4.1399 3.0093-8.0131 6.3989-12.43 9.0139-8.3506 5.1439-17.396 9.0189-26.454 12.723-19.261 7.6855-39.234 13.511-59.492 17.901-0.57054-0.3248-1.2126 0.084-1.8314 0.061-20.092 3.2639-40.432 4.935-60.78 5.2725-11.312 0.151-22.786-0.6616-33.611-4.1579-12.242-3.9173-23.289-10.738-33.757-18.062-12.374-8.7542-24.276-18.15-36.163-27.546-5.2171-4.3689-10.328-8.9887-14.336-14.523-1.7314-2.7043-3.4387-5.4279-5.4246-7.9564-4.8725-6.5325-10.378-12.569-15.03-19.268-2.8359-4.1993-5.5213-8.606-7.0027-13.485-0.53286-1.7697-0.50927-3.6777-1.3296-5.3588-2.9792-7.4324-8.0998-13.698-11.865-20.709-2.3537-4.5901-4.6986-9.4052-4.9779-14.647-1.3306-7.6585-4.6641-14.789-6.2107-22.397-3.4139-16.423-3.5104-33.443-1.0695-50.008 1.1965-7.8049 3.3042-15.468 6.2986-22.775 2.9823-7.7885 5.8959-15.604 8.9673-23.357 2.5188-5.3418 6.228-9.985 9.6852-14.733 6.6026-8.7955 13.57-17.323 20.952-25.476 13.922-15.048 29.462-28.638 46.465-40.108 7.3254-4.8698 15.037-9.317 23.4-12.147 2.8734-0.91913 5.866-1.4004 8.8555-1.7263 3.7632-0.95758 7.3221-2.5539 10.928-3.9682 11.381-4.6652 22.251-10.185 33.283-15.552 10.08-4.9302 20.406-9.3767 31.012-13.052 11.609-3.9652 23.681-6.9334 35.981-7.4257 1.245-0.0473 2.4904-0.0691 3.7363-0.0684zm616.34 11.283c25.208 0.0828 50.518 0.74412 75.465 4.6462 14.206 2.288 28.372 5.7895 41.354 12.129 10.658 5.2213 20.336 12.65 27.554 22.121 7.5152 9.5974 13.84 20.079 19.424 30.9 9.8345 19.125 17.284 39.381 23.588 59.913 4.6555 15.295 8.6463 30.792 11.961 46.432 4.3084 21.084 6.4028 42.793 4.2012 64.267-1.7441 16.886-6.4007 33.689-15.213 48.299-3.6184 6.0522-7.1689 12.15-10.33 18.457-2.9538 5.7436-5.7015 11.612-9.2238 17.04-6.8909 10.905-15.424 20.763-25.136 29.246-6.3731 5.5004-13.553 10.219-21.56 12.956-7.1182 2.5631-14.407 4.629-21.716 6.565-4.589 1.178-9.2076 2.2356-13.828 3.2818-0.3026 0.084-1.0302 0.2658-1.4989 0.3662-11.811 2.3839-23.595 4.9903-35.551 6.5562-6.6329 0.8789-13.349 1.4519-20.034 0.8645-4.8697-0.3586-9.668-1.3678-14.338-2.7757-11.059-3.0952-22.149-6.0892-33.342-8.6631-11.57-2.9459-22.388-8.1441-33.049-13.405-20.036-10.087-39.212-21.803-57.871-34.232-16.352-10.962-32.277-22.63-47.027-35.688-7.6935-6.9084-15.076-14.268-21.145-22.67-4.9945-7.0054-8.8247-14.763-12.058-22.715-2.8286-6.5855-5.3468-13.397-6.2491-20.547-1.1315-8.0115-1.0376-16.125-1.0687-24.197 0.1123-14.35 0.344-28.699 0.6762-43.046 0.3751-12.604 0.8493-25.251 2.7981-37.728 1.4467-8.8541 3.9244-17.774 9.0409-25.257 3.4256-5.0871 7.969-9.3293 12.968-12.845 2.9695-2.1064 5.9323-4.2489 8.5147-6.8298 4.8564-4.592 8.899-9.9376 12.947-15.23 2.8795-3.6184 5.8557-7.2974 9.726-9.9044 1.2954-0.86889 2.818-1.2718 4.2244-1.8934 5.3296-2.8372 10.219-6.2171 15.23-9.5714 5.1111-3.4871 10.283-6.887 15.608-10.038 13.055-7.8894 26.475-15.243 40.52-21.225 5.4032-2.2448 11.116-3.7218 16.93-4.3814 8.0469-0.9876 16.169-0.99448 24.264-1.1265 7.7478-0.0737 15.496-0.0544 23.244-0.0705zm58.441 1005.3c7.8528 0.2853 15.48 2.4744 22.88 4.9703 6.7852 2.4802 13.399 5.525 20.475 7.1244 2.3128 0.5766 4.6909 0.7769 7.0625 0.9015 8.8341 0.9534 16.818 6.3064 21.882 13.487 4.9166 6.9069 7.1891 15.675 6.057 24.094-0.3188 3.738-0.7947 7.6195-2.8159 10.874-2.3496 3.957-6.8274 6.2827-11.34 6.6367-4.8738 0.4569-9.756-0.2352-14.633-0.3026-3.8201-0.062-7.9376 0.051-11.217 2.2694-3.1612 2.0983-5.8761 4.8309-9.2325 6.6452-3.0734 1.8023-6.8149 2.8146-10.331 1.8289-3.5383-0.8957-6.524-3.5949-7.8008-7.0115-1.0469-2.5888-1.0857-5.4227-1.2099-8.1716-2.8933-1.2599-6.1238-1.2804-9.2211-1.4978-3.4351-0.078-6.8823-0.069-10.308 0.2165-1.8404 0.094-3.6831 0.7922-4.9083 2.2095-0.7833 0.7313-1.5225 1.4855-2.1889 2.1969-2.8264 3.0815-5.3805 6.409-7.8131 9.8053-0.4742 0.6261-0.861 1.3104-0.9094 2.1074-0.8384 4.3104-4.2343 8.1289-8.5984 9.0276-3.9119 0.8993-8.0188-0.5755-11.042-3.076-3.3682-2.6684-6.0992-6.0285-8.8023-9.3417-4.3373-5.4764-8.4764-11.253-14.019-15.602-0.8889-0.6164-1.708-1.4883-2.8595-1.5049-2.6497-0.3583-5.3191-1.1813-7.3645-2.9724-2.9202-2.4222-4.4984-6.4126-3.7697-10.169 0.5997-3.7932 3.225-6.8486 5.5809-9.6471 2.8341-3.4564 6.1331-6.5479 9.9062-8.9599 7.1674-4.8718 14.943-8.7609 22.763-12.458 9.9255-4.5875 20.138-8.6151 30.675-11.564 4.2794-1.1408 8.6557-2.0567 13.1-2.1155zm-780.66 22.447c6.9246 1.6557 12.88 5.8327 18.363 10.207 7.5504 6.1438 13.926 13.571 19.956 21.172 3.5957 4.6591 7.0419 9.4705 9.8287 14.663 1.7002 3.3044 3.0202 7.1793 1.959 10.893-1.0888 3.9271-4.6577 7.0551-8.7398 7.4475-3.813 0.5226-7.5068-1.0064-10.813-2.7433-2.8547-1.1717-5.9888-1.3446-9.0266-1.6342-2.8532-0.2013-5.8721-0.2617-8.6336-0.1303-2.611 0.1514-5.2419 0.3162-7.7969 0.9062-1.4711 5.6662-0.69073 11.57-1.2832 17.332-0.40702 3.7588-1.8175 7.5486-4.6636 10.143-2.8245 2.699-6.7321 3.9223-10.565 4.1715-4.6834 0.405-9.3797-0.089-14.065-0.2115-3.7057-0.1686-7.4162-0.393-11.127-0.2475-0.63013 0.032-1.5769 0.081-2.328 0.1525-1.7474 0.2285-3.6019 0.2654-5.2052 1.0623-0.56947 0.565-0.59312 1.4908-0.78755 2.2397-0.60148 3.9566-0.11614 7.972-0.35118 11.953-0.0913 3.9459-0.74011 8.0679-3.0785 11.354-2.6816 3.8395-7.3541 5.8646-11.941 6.0859-5.0849 0.4248-10.195 0.1992-15.287 0.028-3.251-0.1887-6.57-0.4677-9.6387-1.6267-4.1113-1.7703-6.8661-6.422-6.0813-10.887 0.53247-5.9472 2.6156-11.595 4.4555-17.231 3.2926-9.5397 7.1034-18.926 11.825-27.854 1.5461-2.7855 3.4709-5.3732 5.84-7.5126 2.8419-3.0855 5.1127-6.6536 7.1723-10.294 1.7917-3.3009 3.6516-6.5729 5.8796-9.6036 4.9537-6.9996 10.587-13.497 16.479-19.717 4.9425-5.1311 10.049-10.163 15.813-14.375 5.1804-3.714 11.326-6.4565 17.795-6.4728 2.014-0.074 4.0288-0.1254 6.0436-0.1842v0.9141zm-233.22 11.527c1.7552 0.2189 3.5244 0.4166 5.2679 0.7427 6.2227 1.2029 12.064 3.7664 17.851 6.2685 10.001 4.6102 19.152 10.843 27.919 17.458 6.0465 4.6759 11.464 10.093 17.419 14.88 3.0763 2.5111 6.2353 4.9356 9.6077 7.0361 5.1722 3.4845 8.7932 9.0182 10.277 15.044 1.0617 4.6026 2.6554 9.0631 4.1937 13.524 3.0589 8.9935 6.5907 17.818 9.6447 26.812 2.2017 6.2762 3.7164 12.788 4.493 19.394 0.87036 7.2795 1.005 14.621 1.2094 21.942 0.24911 13.379 0.21476 26.76 0.29073 40.14 0.0545 5.7477 0.18422 11.613 0.50484 17.28 0.25746 4.0233 0.69425 7.96 1.3911 11.97 1.0116 5.8225 2.65 11.686 4.4235 17.397 3.1109 9.9566 6.5333 19.757 9.9158 29.631 8.7687 25.397 19.137 50.34 31.153 74.412 3.6066 7.2117 7.3739 14.367 11.3 21.357 5.8565 10.464 12.095 20.719 18.842 30.634 0.98406 1.4204 2.0767 3.0272 3.1296 4.5014 8.2064 11.495 17.004 22.678 27.406 32.284 3.4729 3.259 7.2183 6.2062 11.065 9.0082 5.2147 3.8738 10.512 7.985 13.964 13.594 2.755 4.4213 3.7116 9.9694 2.3245 15.018-1.5617 5.9266-5.515 10.832-9.6441 15.207-4.8872 5.1923-10.122 10.054-15.555 14.67-6.2942 5.1636-13.45 9.2805-21.116 12.031-8.7147 3.2695-17.696 5.7599-26.673 8.1936-10.387 2.7459-20.903 5.1513-31.605 6.2674-8.0865 0.9519-16.108 1.8561-24.155 3.0738-5.3392 0.7004-10.899 1.5441-16.167-0.039-4.1838-1.2697-7.5993-4.2989-10.083-7.82-2.7634-3.7762-5.0387-7.9902-6.0487-12.591-1.6142-7.0292-1.5363-14.298-1.4607-21.468 0.20078-9.1954 0.56771-18.388 1.007-27.574 0.47378-9.9028 1.4593-19.914 4.7471-29.328 2.5956-7.0896 5.7963-13.956 9.4471-20.563 2.8629-5.0608 5.974-10.095 10.193-14.149 0.77742-0.7558 1.858-1.2462 2.4349-2.1749 0.73068-1.9138 0.63969-4.0119 0.84023-6.0225 0.24589-4.348 0.19555-8.753 0.0335-13.035-0.0968-1.6651-0.0887-3.2785-0.47071-4.8808-0.36405-0.9695-1.4229-1.4235-2.1914-2.0352-3.6775-2.4447-8.1615-3.0353-12.455-3.472-5.5269-0.5139-11.09-0.4314-16.632-0.265-2.2987 0.1925-4.841-0.018-6.8293 1.3601-2.2191 1.9278-4.0302 4.2006-5.913 6.396-4.8919 5.5887-9.8596 11.119-15.022 16.463-4.5642 4.6579-9.2589 9.2238-14.433 13.206-2.5476 1.917-5.3846 3.5689-8.5187 4.2713-2.6264 1.6205-5.0356 3.5876-7.3524 5.6256-5.4404 4.8569-10.431 10.233-16.303 14.592-4.022 3.0944-8.2613 6.0534-13.049 7.8296-4.1343 1.348-8.5271 1.3953-12.819 1.7852-13.386 0.8827-26.81 0.963-40.221 0.9299-6.245-0.062-12.501-0.062-18.73-0.5608-6.3132-0.5774-12.619-2.1439-18.15-5.3164-5.1528-2.823-9.9574-6.2271-14.796-9.5453-11.878-8.604-21.605-19.938-29.176-32.448-5.0011-7.7699-9.3974-16.084-11.566-25.124-2.7859-10.584-4.153-21.463-5.8972-32.249-1.164-7.7598-2.4783-15.518-2.9501-23.358-0.22737-6.0219 0.71867-12.086 2.8597-17.723 2.6678-7.557 5.9576-14.855 9.0542-22.234 4.0858-9.4605 8.2212-18.955 13.633-27.749 2.7021-4.2607 6.1258-8.3729 10.851-10.438 2.7124-1.1981 5.4598-2.3146 8.148-3.5685 6.5194-2.9354 13.128-5.6929 19.495-8.9532 3.9204-2.1104 7.9279-4.7495 9.9102-8.8946 1.8871-4.0885 2.0924-8.6791 2.2855-13.106 0.075-2.6007 0.08-5.1989-0.0376-7.7335-0.078-1.7831-0.2226-3.586-0.42034-5.2698-0.16934-1.4141-0.37624-2.8248-0.64791-4.2229-1.6807-0.3609-3.3673-0.5659-5.0058-0.7304-1.6706-0.1678-3.562-0.3028-5.3243-0.379-0.51045-0.019-1.222-0.048-1.7753-0.056-3.9163-0.096-7.8013 0.043-11.66 0.3812-6.618 0.5517-12.917 2.9578-18.787 5.9564-6.1037 2.9803-12.086 6.3217-18.581 8.393-4.3447 1.2784-9.2236 1.2356-13.294-0.9079-3.8453-1.917-6.8788-5.0451-9.9602-7.9658-6.1708-6.161-10.812-13.944-12.791-22.47-2.4442-10.102-1.8616-20.646-0.42545-30.852 0.85603-5.9856 1.8602-11.954 3.113-17.869 1.5306-6.5283 4.1967-12.879 8.4403-18.12 5.0177-6.5589 11.027-12.257 16.667-18.263 5.2778-5.425 10.59-10.97 17.047-15.011 4.6038-2.7114 10.243-4.0017 15.489-2.6105 5.5564 1.3505 10.289 4.7533 14.836 8.0677 6.3814 4.8798 12.187 10.502 17.395 16.612 1.1504 1.4003 2.033 3.0984 3.547 4.1472 2.0268 0.6906 4.212 0.6028 6.3242 0.7246 1.946 0.046 4.0943 0.072 6.1176 0.01 4.0111-0.1784 8.2374-0.2934 11.863-2.2225 0.92831-0.3633 1.066-1.4246 1.0232-2.2915 0.15046-3.4449 1.0616-6.9104 3.0491-9.7651 1.4137-2.1293 3.2894-3.9581 5.4766-5.2832-0.0859-5.5597-1.1616-11.048-1.3174-16.605-0.20756-4.7153 0.59721-9.6533 3.3387-13.597 3.1896-4.6982 8.1876-7.6419 12.905-10.582 7.4796-4.6449 15.067-9.1586 23.036-12.919 5.3993-2.4664 11.264-4.1084 17.234-4.0661 0.19207-0.02 0.38534-0.039 0.57843-0.038zm912.45 44.303c2.3556 0.065 4.6761 0.5886 7.01 0.8904 0.7421 0.1122 1.4842 0.2241 2.2263 0.3361-0.078 1.0362-0.2033 2.1115-0.3125 3.1172 2.5529 3.3008 2.9295 7.6235 3.1411 11.643 0.4567 7.8453-0.1642 15.737 0.7243 23.559 0.2481 2.0323 1.2082 3.9259 2.6478 5.3752 3.2314 3.7595 7.3315 7.0248 12.241 8.1886 3.2959 0.8568 6.7957 0.8991 10.121 0.1742 0.2691-0.069 0.9629-0.2253 1.3988-0.3671 5.7862-1.7604 10.76-5.7994 14.055-10.826 0.2208-2.0257 0.6253-4.1014 1.6999-5.8772 1.9658-3.4952 6.0418-5.7494 10.065-5.2303 3.8337 0.4277 7.1824 3.0415 8.9599 6.4037 1.3707 2.1556 2.5622 4.4633 4.3428 6.3229 5.1597 0.9283 10.428 0.8951 15.653 0.9111 1.9209-0.031 3.9082-0.08 5.7305-0.178 2.1336-0.097 4.2652-0.2403 6.3903-0.4558 0.394-0.051 1.1952-0.1325 1.5987-0.1842 1.464-0.2305 2.9706-0.3176 4.3446-0.7572 4.0081-3.1398 9.7968-3.6483 14.393-1.5269 4.3582 1.7094 7.7056 5.0922 11.438 7.7883 3.656 2.3921 7.9512 3.6162 12.249 4.1917 0.4984 0.067 1.3412 0.1658 1.983 0.2015 2.7584 0.1568 5.6426 0.1373 8.2318-0.9378 1.5364-1.073 2.7047-2.6455 4.4405-3.4432 3.4287-1.9759 8.0123-2.0104 11.26 0.3672 3.7249 2.6029 5.3707 7.7233 3.9285 12.024-0.5636 2.0561-1.1776 4.1034-1.4648 6.2217-2.6446 13.774-4.3893 27.696-6.4156 41.568-2.5485 16.672-6.3417 33.236-12.579 48.942-6.677 17.197-15.237 33.573-22.54 50.501-1.6092 3.6815-3.1417 7.3142-4.5639 11.117-1.2541 3.4663-2.703 6.8604-4.4313 10.118-4.7798 9.4609-10.388 18.47-16.118 27.376-1.9393 3.0943-3.8636 6.1879-5.7044 9.2786-4.3669 7.284-8.5159 14.703-12.273 22.321-1.8336 3.6264-3.8975 7.1685-6.195 10.475-7.2687 10.832-15.898 20.676-24.897 30.092-9.1852 9.4771-18.995 18.396-29.708 26.126-4.7135 3.3444-9.743 6.2066-14.85 8.9005-10.006 5.4416-19.873 11.016-29.689 16.771-3.5057 1.9463-7.0474 4.0815-11.037 4.8341-3.1956 0.385-6.1924-1.0444-9.258-1.6724-4.9803-1.3421-10.075-2.2133-15.207-2.7124-5.616-0.6716-11.277-0.7254-16.917-1.0597-4.9261-0.3274-9.9438-0.9253-14.519-2.8877-4.7421-2.0059-8.6812-6.1222-9.9263-11.182-0.6829-3.0593-0.5844-6.2397-1.3588-9.2858-0.7705-4.0154-1.6354-7.8001-2.5975-11.765-1.7248-7.2511-3.7961-14.417-5.4188-21.692-3.9085-17.81-5.6116-36.048-5.9709-54.259-0.1468-10.86 0.2611-21.776 2.1242-32.493 1.3958-7.2792 3.3415-14.437 4.9244-21.675 2.2447-9.5493 4.2637-19.154 6.7243-28.651 4.0099-15.174 8.9977-30.075 14.557-44.748 2.4545-6.743 4.7208-13.555 6.7493-20.439 0.4312-1.5143 0.9417-3.2386 1.3696-4.8445 0.403-1.4964 0.8161-2.9501 1.1442-4.3879 1.217-5.3863 2.0145-10.87 3.5771-16.175 3.2565-11.811 8.4795-23.044 15.172-33.295 4.8251-7.5148 10.428-14.483 15.909-21.52 4.6216-6.2097 9.0043-12.66 12.32-19.673 1.3762-3.5138 2.6335-7.0989 4.5763-10.354 2.411-4.3286 5.6772-8.4764 10.258-10.622 1.3492-0.5775 2.803-0.9181 4.2715-0.957zm-623.2 33.449c4.2842-0.1089 8.1382 2.7084 10.285 6.2637 4.2802 6.7305 7.736 13.933 11.434 20.988 11.488 22.913 19.174 47.561 24.545 72.572 2.7349 12.832 4.728 25.807 6.3644 38.821 2.0817 14.722 4.8958 29.328 7.7325 43.919 5.239 26.624 11.48 53.051 16.021 79.809 1.313 7.8122 2.4359 15.844 1.0325 23.727-0.694 3.9118-2.9526 7.7791-6.6796 9.4649-3.5486 1.689-8.0182 1.0339-10.96-1.5627-3.0911-2.6656-4.2825-6.7311-5.5166-10.47-2.6374-8.2564-4.5736-16.716-6.4802-25.165-2.9825-13.544-5.5656-27.176-8.4962-40.685-4.4563-20.108-9.028-40.286-16.323-59.592-3.285-8.6024-7.1148-17.003-11.592-25.053-0.94093-1.6742-1.996-3.5159-3.0455-5.217-4.3148-7.0979-9.3809-13.896-15.958-19.058-0.44769-0.3422-1.145-0.8855-1.7099-1.2858-3.0025-2.1173-6.2253-4.0264-9.7507-5.1198-3.6078-1.0217-7.3977-1.0452-11.077-1.1151-4.1567 0-8.1635 0.1324-12.331 0.3294-7.8146 0.4137-15.698 0.843-23.529 1.4809-1.0065 0.1056-2.3225 0.2357-3.4524 0.3611-2.431 0.3076-4.9812 0.5612-7.1539 1.779-1.8843 1.328-3.2736 3.2148-4.8086 4.9082-3.0468 3.5373-5.7347 7.4155-7.6179 11.703-2.0828 4.5391-3.2485 9.4235-4.1324 14.319-2.049 10.251-4.1144 20.5-6.3104 30.719-0.63686 3.7915-0.91011 7.634-1.0584 11.472-0.11141 3.9427-0.0919 8.0597 0.0887 12.065 0.10015 1.9543 0.22792 3.8531 0.41022 5.8492 0.51571 5.6105 1.3688 11.207 2.907 16.634 0.59165 2.225 0.56047 4.6291-0.35125 6.7655-0.56895 1.459-1.289 2.8524-1.9355 4.2774-2.7947 0.7059-5.4283 2.4857-8.4212 2.0437-4.0343-0.5066-7.2927-3.5524-9.0651-7.0752-5.1824-8.6696-9.2057-17.994-12.315-27.594-3.9653-11.948-7.1434-24.146-9.9074-36.423-1.5642-7.1461-3.0067-14.33-4.0046-21.578-0.88727-9.1925-0.5039-18.457 0.26817-27.643 0.521-5.3947 1.0821-10.811 2.3125-16.098 1.2509-4.6556 4.0526-9.1195 8.4142-11.406 4.6438-2.59 10.11-2.7304 15.293-2.8309 6.3331-0.1366 12.717 0.2465 18.999-0.7423 0.72759-0.2381 1.8232-0.1668 2.0953-1.0576 1.6017-4.0339 1.9094-8.4196 2.9413-12.608 0.84181-3.543 2.0775-7.189 4.7794-9.7653 2.4389-2.4827 5.7556-4.0077 9.2004-4.41 5.7463-0.9701 11.697 0.2415 17.365-1.3145 0.45165-0.1215 0.92353-0.3777 0.86981-0.9261 0.57231-3.0163 0.0532-6.1229 0.61696-9.1446 0.58115-3.8503 2.8432-7.485 6.2829-9.3967 3.581-2.1105 7.8964-2.0928 11.915-1.8326 7.1607 0.5426 14.317 1.9113 21.52 1.3092 2.5736-0.3147 5.3999-0.5129 7.4884-2.2251 1.4941-1.3159 1.734-3.4539 1.9586-5.3174 0.34207-3.7694-0.2688-7.7392 1.3175-11.301 1.5081-3.85 5.3759-6.5622 9.5248-6.5681z"/>
<path d="m991.6 2329.5c-31-11.3-41.8-20-63.5-50.5-23.5-33.4-36.8-60.3-50.8-101.2-11-32.5-11-32.5-12.2-97.8-0.9-53.7 0-68.8 3.8-84.1 2.6-10.4 6.7-26.1 8.7-34.8 7.3-31.3 10.4-40.6 24.7-71.4 22.9-48.7 49-82.1 77.2-98.6 16.5-9.9 50.5-16.5 73.7-14.8 40 2.9 97.2 35.4 112.3 63.8 20.6 38.9 33.4 90.5 41.5 167.4 6.7 63.5 7.3 102.1 2.6 130.3-12.2 71.9-56 150.3-101.2 180.7-24.9 16.8-35.1 19.7-68.2 19.4-21.5 0-30.2-1.5-48.4-8.4zm82.1-39.5c29.6-20 41.8-34.5 61.5-73.4 21.5-42.1 34.2-86.4 34.8-120.1 0.6-36.6-16.5-155.2-25.5-177.5-3.2-8.1-20.6-35.4-36.8-58.3-8.7-11.9-24.1-22.6-42.9-29.9-14.2-5.5-18-5.8-34.8-2.9-22.9 4.1-28.7 7.3-50.8 30.2-12.2 12.5-19.1 22.3-22.9 33.7-3.2 8.7-9.9 24.9-14.8 36-5.2 11.3-10.4 23.5-11.3 27.6-1.2 4.1-3.8 13.9-5.8 21.8-16.2 58.9-16.5 60.1-16.8 102.7-0.6 38.6 0.3 44.7 7.5 69.9 4.6 15.1 12.5 36.8 17.7 48.4 12.5 27.3 43.5 74.8 53.4 81.8 14.5 10.4 42.1 20 57.1 20.3 12.8 0.3 17.4-1.5 30.5-10.2z"/>
<path d="m813.7 1797.2c-34.2-11.9-51.6-63-51.9-152.3-0.3-30.5-0.3-30.5 14.8-31.3 17.1-0.9 16.2-2.3 20.9 29.9 7 47.3 13.1 79.2 16.5 86.2 4.6 8.7 11.9 16.8 15.7 16.8 5.8 0 16-45.3 21.5-94.3 3.2-29 3.2-29 15.1-29.9 11.6-0.9 12.2-0.6 13.9 8.7 8.7 42.1 3.5 131.1-8.7 152-10.2 18-31.6 23.5-57.7 14.2z"/>
<path d="m1417.1 1586.8c-23.8-20.9-52.8-44.1-64.1-51.9-24.1-16.2-60.9-32.5-78.6-34.5-12.2-1.5-12.5-1.5-12.5-12.5 0-11.3 0-11.3 22.6-11.3 15.4 0 27 1.7 38 5.8 40 15.4 60.6 29.9 115.7 81.2 40 37.4 44.1 42.1 44.1 51.1 0 9.6-0.3 9.9-10.7 9.9-9.9-0.3-15.7-4.4-54.5-37.7z"/>
<path d="m742.6 1533.5c0-13.1 12.2-22.3 63.8-47.6 31.9-15.7 41.8-19.1 53.7-19.1 14.5-0.3 14.5-0.3 14.5 10.7 0 10.7 0 10.7-42.1 29-23.2 9.9-49 22.3-57.4 27.6-8.4 4.9-19.1 9.3-23.8 9.3-7.8 0-8.7-0.9-8.7-9.9z"/>
<path d="m1095.1 1455.7c-4.6-1.7-11.6-5.5-14.8-8.7-6.1-5.5-6.4-5.5-17.4 1.2-8.7 4.9-16.5 6.7-37.4 7.5-24.1 1.2-27 0.6-28.4-4.1-1.2-3.2-4.6-9-8.1-13.3-4.4-5.2-7-13.3-7.8-24.1-1.5-16.2-1.5-16.2 12.8-15.4 13.1 0.9 14.2 1.7 19.7 12.5 4.1 7.5 8.4 11.9 12.8 12.5 7 1.2 32.5-12.2 32.5-16.8 0-1.7-8.4-6.7-18.9-11.3-22.9-10.4-37.1-21.8-48.2-38.6-7.5-11.3-8.4-14.8-8.4-37.4 0-31.3 1.7-33.1 30.2-32.8 23.2 0 37.4 5.5 52.8 20 9.9 9.3 9.9 9.3 35.1 2.6 27-7.3 55.4-9 65-4.1 4.4 2.6 5.5 6.4 5.5 20.6 0 18-7.8 35.1-19.7 43.8-2.9 2-15.7 13.1-27.8 24.7-22.3 20.9-22.3 20.9-11.9 28.7 9.3 7 11 7.5 17.4 4.1 4.1-2 7.8-6.4 9-9.3 1.5-4.4 4.1-5.2 13.6-4.6 11.6 0.9 12.2 1.5 13.1 10.7 2.6 25.2-9.6 35.1-41.5 34.8-11 0-24.1-1.5-29-3.2z"/>
<path d="m1334.7 2295.8c-20.9-26.7-12.2-107.6 18.3-165.6 21.2-40.3 37.7-53.1 67.9-53.1 14.5 0 18.9 1.5 29.3 8.7 6.7 4.9 13.3 12.2 14.8 16.2 1.7 4.1 2.9 21.5 2.9 38.9 0 38.3-8.4 70.2-28.1 107.9-24.9 47.6-34.8 54.5-74.6 54.5-22.9 0-24.9-0.6-30.5-7.5z"/>
<path d="m753.1 1206.8c-29.6-19.7-31.9-23.5-33.1-58.3-1.5-31.9 1.7-44.7 13.9-57.7 6.4-7 10.4-8.7 19.7-8.7 12.5 0 18 5.2 26.1 24.4 3.8 8.4 3.8 8.4 13.1-0.6 8.4-8.1 11.6-9.3 25.5-9.3 8.7 0 18 1.7 20.6 3.8 6.4 4.9 12.2 38.9 9.6 56.9-1.2 8.1-6.4 23.8-11.9 35.1-11.3 23.8-19.7 29-45.5 29-13.9 0-18.3-1.7-38-14.5z"/>
<path d="m1415.7 1216.7c-18.6-6.7-31.6-14.5-35.4-20.9-14.2-24.4-14.2-95.4-0.3-109.4 4.9-4.9 22.3-5.8 34.8-1.5 4.6 1.7 12.5 8.4 17.1 14.5 4.6 6.4 9.6 11.6 10.7 11.6 1.2 0 4.4-4.6 6.7-10.2 4.1-9.9 4.6-10.2 20-10.2 14.8 0 16 0.6 20.6 9.6 7.5 14.2 9.3 61.8 2.9 78-9.9 24.4-27.3 36.6-54.5 38.6-9.9 0.9-20.3 0.6-22.6-0.3z"/>
</g>
<g transform="translate(-99.9 -28.6)" fill="#fff">
<path d="m563.9 2473.1c-7.5-7.5-7.5-7.8-6.4-50.2 0.9-39.5 1.5-43.8 9-59.8 4.4-9.6 10.4-19.1 13.6-21.2 3.5-2.6 5.8-7.5 5.8-12.5 0-10.4-9.9-18-24.9-18.3-8.7-0.3-12.2 1.5-19.1 9.6-16 18.9-29.6 31.9-33.7 31.9-2 0-9.9 5.8-17.1 13.1-7.3 7.3-16.5 14.2-20.9 15.4-4.1 1.2-26.7 2-49.9 2-42.4 0-42.4 0-58.9-11-11-7.3-20.3-16.8-27.8-28.4-11.9-18.6-14.8-29-20.6-72.2-3.5-27.6-3.5-27.6 5.8-49.3 13.1-31 18.6-41.2 23.5-43.8 2.3-0.9 11.3-4.9 19.7-8.7 18.3-7.8 26.7-17.4 26.7-29.9 0-20.6-16.8-21.8-51.9-3.2-23.5 12.2-29.3 13.6-29.3 6.7 0-1.7-3.8-7.3-8.4-12.8-11.3-12.5-13.6-29.9-9-61.8 3.5-24.9 3.5-24.9 22.9-44.4 17.7-17.7 20.6-19.7 31-19.7 12.8 0 27.6 9.3 38.9 24.1 3.8 4.6 9 7.8 13.1 7.8 7.8 0 16-7 16-13.6 0-2.6 2-6.1 4.4-7.8 4.1-2.9 4.1-4.4 0-14.5-5.5-13.3-5.2-13.9 20.3-29.3 28.1-16.8 36.6-18 60.6-8.1 12.8 4.9 26.1 13.3 36.6 22.6 8.7 7.8 18.6 16 21.8 17.7s6.1 6.1 6.7 9.6 5.2 17.1 10.2 30.2c9 23.2 9.3 24.9 9.6 71.7 0 47.9 0 47.9 15.1 92.8 27.6 81.5 70.5 154.3 106.5 180.2 7.3 5.2 13.1 11.3 13.1 13.3s2 4.6 4.4 5.5c9.3 3.8 4.4 14.8-14.5 32.5-16.2 15.4-21.8 18.6-43.2 24.9-13.3 4.1-28.7 7.5-33.9 7.5-5.5 0.3-17.7 2-27.3 4.4-24.1 5.8-29.6 5.5-38-2.9z"/>
<path d="m977.6 2397.4c-8.7-2.3-23.8-4.4-33.4-5.2-9.6-0.6-23.8-2.6-31.9-4.4-7.8-1.7-19.4-3.8-25.2-4.6-9.3-1.5-11-2.9-11-8.7 0-3.8-4.6-29.6-10.2-57.4-5.5-27.6-11.3-64.1-13.1-80.6-2.9-29.6-12.5-81.2-21.8-118.6-11-45-40.6-118.9-56.9-142.1-12.2-17.4-34.2-40-43.5-45-9.9-5.2-34.5-8.4-47.3-6.1-11.9 2.3-47.6 35.4-56.3 52.8-3.2 6.4-8.7 13.9-12.2 17.1s-8.4 9.6-10.7 14.2c-4.4 8.1-4.6 8.4-8.4 3.2-2.3-2.9-4.1-9.6-4.1-14.2 0-4.9-3.5-16.8-7.5-26.4-10.4-25.5-29.3-81.8-33.1-100.1-1.7-8.7-4.4-30.8-5.8-48.7-1.7-18-4.9-37.4-7.5-43.5-6.1-14.5-11.3-127.9-7.3-163 1.7-13.6 3.8-41.5 4.9-62.1 2-37.1 2-37.1 24.1-47.3 66.4-30.5 133.4-53.1 195.8-66.4 27.3-5.8 46.7-7.8 86.7-9 36.3-1.2 51.3-2.6 50.5-4.9-1.7-5.5-74.3-5.5-109.1 0-63 9.6-130.8 30.2-204.8 61.8-19.1 8.1-36.6 14.8-38.9 14.8-2.9 0-3.5-3.2-2-13.6 4.1-28.4 17.1-86.4 20.3-89.9 4.6-4.9 58-16.8 110.5-24.4 38.3-5.5 51.3-6.1 110.2-4.6 36.8 0.9 76 3.2 87 4.9 11.3 1.7 28.7 4.4 39.2 5.5 10.4 1.5 21.2 3.5 24.1 4.6 3.5 1.5 4.9 0.6 4.9-2.3 0-6.1-4.1-7.3-49.6-13.6-109.9-15.4-176.7-13.9-277.6 6.1-24.4 4.9-45.3 8.1-46.4 7.3-2-2-0.9-6.7 16.5-62.7 6.4-21.5 11.9-43.5 11.9-48.4 0-13.6 6.4-12.5 25.2 4.9 33.4 30.5 75.1 47.9 124.2 51.3 31.6 2.3 96-7.5 150.9-22.9 25.5-7 51.1-24.1 68.2-45.3 7.3-8.7 20.3-24.1 29-33.9 30.8-34.5 41.8-67 45.3-134.9 1.7-29.3 1.2-36-4.4-53.7-3.5-11-9.9-26.1-14.5-33.4s-9-16.5-10.2-20.6c-4.9-21.2-84.4-80.6-124.5-93.1-20.9-6.4-52.2-6.7-80.6-0.9-36.8 7.8-96.9 27-109.4 35.1-11.6 7.5-21.2 4.1-33.1-11.9-6.1-7.8-13.6-21.8-17.1-30.5s-11.9-23.8-18.6-33.4c-20.6-29-35.7-63-56.3-125.6-15.4-46.7-20.6-66.1-22.6-87.3-2.6-27.6-2.6-27.6 9.9-41.5 6.7-7.5 13.6-16.5 15.4-19.7 1.7-3.2 4.6-5.8 6.7-5.8 5.2 0.3 20 35.4 41.2 97.2 24.1 70.2 44.4 110.8 74 148.5 25.5 32.5 35.1 38.6 49.3 32.8 20.6-8.4 23.2-29 9-76-4.9-16.5-11.6-42.4-14.8-57.4-12.8-61.8-76-214.7-90.5-219.3-14.5-4.4-14.2 7 0.3 36 38.3 76.3 63.2 144.2 77.2 210.3 4.1 20.6 10.2 38.9 16 49.9 7 13.1 8.7 19.7 7.5 27-3.5 22.6-13.6 23.5-32.5 2.9-34.2-38.3-57.4-79.5-79.5-141.6-22.3-63-26.1-72.5-35.1-90.2-4.6-9.3-8.4-18.6-8.4-20.3 0-2-2-4.9-4.9-7-4.4-3.2-3.8-5.8 6.1-30.2 16.5-41.8 23.8-81.2 16.8-92.5-3.5-4.9-20.3-9.6-22.6-5.8-0.9 1.5-3.5 10.4-5.8 20-5.2 22-12.2 36-33.1 65-9.3 12.8-17.7 26.1-18.9 29.9-0.9 3.5-11.6 19.4-23.5 35.4-21.8 29-21.8 29-36 29-49.6 0-98.6-28.4-111.1-64.7-17.4-50.5-25.2-103.6-22-146.8 2-23.2 3.8-29 18.3-58.9 21.2-43.2 36.3-66.7 48.4-74.3 5.5-3.5 16.2-12.8 23.8-20.6 12.5-12.8 16.5-15.1 33.9-18.9 23.2-5.5 49-5.8 85.6-1.7 22 2.6 30.8 5.2 55.1 17.4 38.3 18.6 52.5 32.5 89.6 86.7 36 52.5 59.2 96.3 69.9 132.3 4.1 14.5 13.3 42.4 20.3 62.4s14.8 46.1 17.1 58c2.6 11.9 7.8 32.8 11.9 46.4 7 23.5 15.1 73.4 21.8 134.3 1.7 15.7 4.9 32.5 7.5 37.4 4.1 8.1 5.5 8.7 15.1 7 5.8-0.9 16-5.5 22.6-10.2 6.7-4.6 29-14.2 49.3-21.5 20.6-7.3 47.9-17.1 60.6-22.3 12.8-5.2 30.5-10.4 39.2-12.2 8.7-1.5 25.2-4.9 36.3-7.5 15.4-3.8 33.4-4.9 72.5-4.9 52.2 0 52.2 0 78.3 10.2 28.4 11 40.3 18 79.8 45.5 28.7 20.3 40.6 23.2 47 11.9 2.3-4.6 3.8-25.5 4.4-64.7 0.9-55.4 6.7-101.5 15.7-125.3 2.6-7 23.2-99.5 35.4-159 9.9-48.2 35.4-145.3 42.4-161.3 3.5-7.3 7.8-22 10.4-32.5 7.8-33.9 20-61.5 46.4-103.9 1.7-2.6 5.8-9.9 9-16 3.5-6.4 9-13.9 12.5-16.8 3.5-3.2 9-10.4 12.5-16 3.5-5.8 11.3-16 18-22.6 10.7-11.6 12.8-12.5 26.7-12.5 13.3 0 17.1 1.5 32.5 12.8 18 13.3 19.4 15.1 38.3 44.1 27.6 42.4 36.8 113.1 29 221.6-4.9 69.9-8.7 92.3-22.3 136.3-10.2 33.1-18.3 51.9-37.7 88.2-13.6 25.5-29.3 53.4-34.8 62.1-12.8 19.7-65.9 131.7-74.8 158.1-4.1 11-10.4 24.1-14.8 29-4.4 5.2-12.8 19.7-18.6 32.5-15.4 33.1-18.9 35.7-54.5 39.2-21.8 2.3-38.6 6.4-62.4 14.8-37.7 13.6-50.8 20.6-69 38-7.3 7-21.8 20.6-32.2 30.5-21.5 20.3-35.1 45-40.6 73.1-1.7 9-3.2 36.6-3.5 61.2-0.3 44.4-0.3 45.3 9 68.2 11.9 29 15.7 33.9 51.9 68.2 33.7 31.9 49.3 41.8 92.8 59.5 60.3 24.1 127.6 34.5 168.8 26.7 11.9-2.6 12.2-2.3 9.9 4.1-1.5 3.8-1.5 11.3-0.3 17.1 2.6 10.7 0.6 29-3.2 29-1.2 0-15.4-4.1-31.6-8.7-60.3-18-78.3-21.2-114.9-21.5-19.1 0-42.1 1.5-50.8 3.5s-39.5 4.9-67.9 6.4c-46.7 2.3-62.1 4.9-54.8 9.6 2.9 1.7 106.8-2.6 110.2-4.6 1.2-0.9 17.4-2.9 35.7-4.9 28.4-2.9 37.4-2.6 59.5 1.2 29 4.9 116.9 29.6 122.7 34.2 1.7 1.7 3.5 8.1 3.5 14.2s1.5 14.5 3.2 19.1c2.6 6.7 11.3 52.2 11.3 59.8 0 4.4-8.4 1.7-35.1-10.7-15.1-7-35.4-14.2-44.7-16-9.6-1.5-26.4-4.4-37.7-6.4-11-1.7-34.2-6.4-51.3-10.2s-36.8-7-43.8-7-28.7-3.2-47.9-7.3c-39.2-8.1-51.1-9-49.3-3.8 0.9 2 9.6 4.9 20 7 10.2 1.7 29.6 5.5 43.2 8.1s29.6 4.6 35.7 4.6c5.8 0 24.1 3.2 40.6 7 16.2 3.8 46.7 9.9 67.3 13.3 32.8 5.8 42.1 8.7 70.5 22.3 18.9 9 34.5 18.9 37.1 22.6 5.5 8.7 8.1 65 8.4 178.4 0 95.2-2.9 157.2-9.3 193.5-6.1 34.5-6.4 35.1-20.3 29.3-13.9-6.1-68.2-9.3-86.2-5.2-15.1 3.5-45.5 23.2-52.8 34.5-2.6 4.1-10.4 13.3-17.4 20.6-37.4 38.3-46.1 50.8-68.5 98.9-38.9 83.8-56.9 148.2-59.5 215.8-1.5 29.9-0.6 38.3 4.9 58.6 7 25.8 5.5 34.5-6.7 36.8-54.5 11-133.4 20.3-202.2 23.5-16.8 0.9-36.8 2-45 2.6-7.8 0.3-21.8-0.9-30.5-2.9zm90.5-71.1c19.4-5.2 50.2-28.4 66.7-50.5 44.4-58.9 69-124.7 69-184.5 0-32.5-11.6-130.5-19.1-162.2-7.5-31.9-17.4-60.1-28.1-80.4-13.1-24.7-66.7-57.7-103-63.5-14.5-2.3-50.8 5.8-65.6 14.5-28.1 16.5-54.2 49.9-77.2 98.6-14.2 30.8-17.4 40-24.7 71.4-2 8.7-6.1 24.4-8.7 34.8-3.8 15.1-4.6 29.9-3.8 75.4 1.2 56.6 1.2 56.6 12.2 89.1 13.9 40.9 27.3 67.9 50.8 101.2 21.8 30.5 32.5 39.2 63.5 50.5 24.1 9 48.4 11 67.9 5.5zm138.4-534.4c9.9-9.3 17.7-18.3 17.7-20.3 0-1.7 4.1-11 8.7-20 8.1-15.7 9-19.1 9.9-53.7 0.6-20.6 2.6-41.2 4.4-46.1 2-4.9 3.2-17.4 2.6-27.6-0.9-18.6-0.9-18.6-12.5-18.6-10.4 0-11.6 0.9-13.3 8.7-1.2 4.9-2 18-2.3 29.6-0.6 32.5-5.5 63.8-15.1 93.1-10.2 30.8-16 34.2-21.5 12.2-2-7.3-4.9-16-6.7-19.4-4.4-8.1-4.6-80.6-0.3-103.6 3.8-20.6 1.7-29.6-6.7-31.6-18.9-4.9-24.9 13.6-27.3 85-2 64.7 9 115.2 28.1 128.8 8.4 5.8 13.6 3.2 34.2-16.5zm-359.7-2.3c5.8-2 11.6-7.5 16.2-15.4 9.9-17.1 15.4-73.1 10.7-113.1-1.7-15.7-3.8-29.3-4.6-29.9-4.1-4.1-7 4.4-9 25.8-2.3 27-8.1 59.8-15.1 84.4-3.8 13.9-5.5 16.5-11.3 16.5-25.2 0-31.9-15.1-45-105.9-4.4-29-4.9-31-12.2-29.9-6.1 0.9-6.4 2.3-6.1 22.6 0.3 34.8 6.1 77.5 13.3 98.1 7.8 22.6 22.6 40 38.6 45.5 14.2 4.9 13.3 4.9 24.4 1.2zm597.9-203.1c-42.9-41.2-69.3-63.5-87.9-74.6-25.5-15.4-56-26.7-71.9-26.7-17.4 0-18.9 4.6-1.7 6.4 17.7 2 54.5 18.3 78.6 34.5 11.3 7.8 40.3 31 64.1 51.9 24.1 20.6 45 37.4 46.4 37.4 1.7 0-10.7-13.1-27.6-29zm-299.7-141.6c10.4-6.4 14.8-16.5 9.6-21.8-2.9-2.3-4.1-2.3-4.9 0.6-3.5 9-13.9 15.1-25.8 15.1-10.2 0-14.2-1.7-22.6-9.9-7-6.4-10.4-12.2-10.4-17.4 0-4.1 1.2-7.5 2.6-7.5 4.4 0 58.6-51.1 64.4-60.6 11.3-18.6 5.2-32.2-13.9-32.2-11.3 0-49.6 10.4-60.6 16.2-9.3 5.2-9.3 5.2-22-7.8-15.1-15.4-30.2-23.2-47-23.8-17.7-0.9-22 4.1-22 23.8 0 27.3 19.4 50.5 56.6 67.3 18.6 8.4 18.9 8.7 18.9 20 0 10.4-1.2 11.9-12.8 18.9-10.4 6.1-16 7.3-28.4 6.7-14.8-0.9-15.7-1.5-21.5-12.5-7.3-14.2-17.4-18-14.5-5.2 1.2 4.4 4.6 11.3 7.8 15.4s6.4 9.6 7.5 12.5c3.2 10.2 38 5.2 56-8.1 5.5-4.1 10.7-7.3 12.2-7.3 1.2 0 6.4 3.8 11.6 8.4 17.7 15.1 42.9 19.1 59.5 9.3zm333.3-710.7c21.5-16.8 58.3-71.7 77.5-115.2 18-41.5 58.9-174.1 79.2-257 6.1-24.9 15.7-91.7 15.7-109.7 0-20.9-6.1-49.6-12.8-59.5-12.5-18.9-44.7-20.9-61.5-4.1-11.9 12.2-60.1 115.5-76.6 165.1-4.6 13.6-15.1 43.5-23.2 66.7-20 55.7-24.4 71.1-36.6 127.6-18.3 84.7-22.6 132.9-13.3 145.3 2.9 3.8 6.7 13.3 8.7 21.5 2 7.8 5.8 16.8 8.4 19.4 6.4 7.3 25.5 7 34.5-0.3z"/>
<path d="m1002.3 2301.3c-25.5-10.7-31-15.7-50.8-46.1-21.8-33.7-34.5-60.6-45.3-96.9-7.8-26.1-8.1-30.2-7.8-78.3 0.3-34.2 1.7-56 4.6-66.7 2.3-8.7 7.3-26.4 10.7-39.2 3.5-12.8 7.3-25.8 7.8-29 0.9-3.2 5.8-14.8 11-26.1 4.9-11 11.6-27.3 14.8-36 3.8-11.3 10.7-21.2 22.9-33.7 23.5-24.4 27.8-26.7 57.1-30.8 22.9-3.5 27-3.2 40.6 1.5 19.7 6.7 39.7 20 48.2 31.6 16.5 23.5 33.7 50.5 36.8 58.6 4.6 11 17.4 83 22.3 124.7 9 77.7 1.2 126.2-31.6 190.3-19.7 38.9-31.9 53.4-61.5 73.4-14.8 9.9-16.5 10.4-39.2 10.2-18-0.3-27.6-1.7-40.9-7.5z"/>
<path d="m1450.5 713.1c-1.5-3.8-4.6-19.7-7.3-35.4-2.6-15.7-6.4-33.1-8.7-38.3-3.5-8.4-3.2-12.8 1.2-35.1 18-86.4 37.4-151.7 65.6-218.7 4.1-10.2 8.7-22.3 9.9-27.3 2.6-9.6 25.8-65 29.3-69.6 1.2-1.5 9.9-19.7 18.9-40 19.1-42.1 30.8-57.1 44.4-57.1 12.2 0 23.5 10.4 26.7 24.7 7.8 33.4-0.9 105.3-20.6 174.1-27.3 94.9-56.6 183.3-72.5 218.7-18.3 40-56 98.1-70.5 108.2-6.1 4.4-13.6 2.3-16.2-4.1z"/>
<path d="m1349 2385.8c-7.3-2-19.1-3.8-26.7-3.8-17.4-0.3-22.6-2.6-22.6-9.3 0-3.2-3.2-17.7-7.3-32.8-5.8-22.3-7.3-33.9-7.3-64.1 0-20.3 1.2-41.8 2.6-47.6 1.5-5.8 4.9-20.9 7.8-33.7 2.6-12.8 9.3-34.8 14.8-49.3 5.5-14.2 11.3-32.8 12.8-41.2 3.8-21.2 11.6-37.7 25.8-54.5 6.7-7.8 15.4-20.9 19.1-29 3.8-7.8 11.3-20 16.5-26.7 4.9-6.7 12.5-16.8 16.5-22.6 14.2-20.9 19.1-24.9 43.5-35.4 30.5-13.3 53.7-14.8 77.5-4.4 8.1 3.5 18.3 6.4 22.6 6.4 4.1 0 10.7 3.2 14.5 7 7.3 7.3 7.3 7.3 6.1 71.9-0.9 60.1-4.6 99.8-13.1 132.9-1.2 5.5-8.7 23.2-16.2 39.2s-15.7 33.9-17.7 40.3c-2.3 6.1-9.9 19.7-17.1 30.8-7 10.7-16 26.1-19.7 34.2-10.2 21.8-42.1 54.8-66.7 69.3-47 27.6-47.6 27.6-65.9 22.3zm41.8-95.2c12.5-5.2 24.1-19.7 40.3-50.5 19.7-37.7 29-72.5 27.6-105.3-0.9-26.4-0.9-26.4-12.5-36.3-20.9-18.3-38.3-16.8-59.2 4.1-23.8 24.1-49.9 85.3-54.5 128.2-2 19.7 3.2 46.4 11 56.3 5.2 6.4 8.1 7.5 21.8 7.5 8.7 0 20-1.7 25.5-4.1zm42.1-241.4c7.8-6.7 9-9.3 9-22.9s-1.5-17.1-11.6-30.2c-13.1-16.2-16.8-17.7-24.9-8.7-4.1 4.6-5.8 11.6-6.7 28.7-0.9 22.3-0.6 22.9 8.1 31.6 11.3 11 14.8 11 26.1 1.5zm114 2.6c4.1-3.8 5.2-9 5.2-25.2 0-11.3-0.9-23.5-1.7-27-4.1-15.4-24.1-9-32.2 10.2-6.1 14.5-3.2 29 7.8 39.2 10.2 9 13.6 9.6 20.9 2.9zm-48.2-11c3.8-5.8 4.6-11.9 3.5-27.6-1.7-22-5.2-29-15.1-29-6.7 0-18.9 11-24.7 22.3-6.1 12.2-2.6 33.1 6.7 39.2 1.7 1.2 8.1 2.3 13.9 2.3 8.4 0 11.9-1.7 15.7-7.3z"/>
<path d="m763.8 2376.2c-39.2-11.3-42.6-13.3-64.1-40.3-25.5-32.5-47.3-64.4-56.9-84.7-14.5-29.9-28.4-102.7-22-114.6 2.6-5.2 2.6-8.1-0.9-14.8-7-13.9-7.8-22.3-4.9-47 3.5-30.8 12.8-62.1 20.6-69 3.5-2.9 8.4-10.2 11.3-15.7 6.4-12.2 30.5-38.3 40.3-43.5 11.6-6.1 29.9-1.2 44.7 11.9 13.9 12.2 26.4 31 29.9 45 1.2 4.6 10.2 26.1 20.3 47.6 19.1 40.9 27.6 70.2 33.1 113.1 1.5 13.6 7.3 45 12.8 69.6 5.5 24.7 11.3 55.1 13.3 67.3 3.2 21.2 2.9 22.9-3.2 31-5.2 7.3-6.1 11-4.4 22.3 1.5 11.6 0.9 14.8-4.6 20.6s-9 6.7-26.7 6.4c-11.3 0-28.7-2.3-38.6-5.2zm28.7-11.9c13.3-3.8 25.5-17.7 25.5-29.3 0-11.3-18.9-103.9-25.2-123-7-22-22.6-51.1-32.5-61.2-13.6-13.9-22.9-16.5-48.2-14.2-20.9 1.7-22 2.3-30.8 13.3-6.7 8.4-10.2 17.4-13.6 35.1-6.4 33.7-5.5 49.3 4.6 68.8 28.7 56.3 41.8 72.8 77.5 100.1 18.3 13.6 24.7 15.4 42.6 10.4zm-126.2-255.9c1.7-2 3.8-7.8 4.6-13.1 2.3-12.2-4.6-20.3-20-23.5-18.3-4.1-28.7 3.2-25.8 18 2.9 16.8 9 22 24.4 22 7.8 0 15.4-1.7 16.8-3.5zm35.1-29c1.5-2 3.8-9.9 4.6-17.4 2-13.3 1.7-13.9-7.5-19.7-16-9.6-37.1-6.1-37.1 6.1 0 11.3 22 33.9 33.7 34.5 1.7 0 4.6-1.7 6.4-3.5zm46.4-21.5c5.2-3.5 6.4-7.3 6.4-18.9 0-12.2-1.5-16-8.4-22.9-9.6-9.6-22.3-13.9-29-9.6-7.3 4.6-6.4 36 1.2 44.4 10.4 11.6 20.3 13.9 29.9 7z"/>
<path d="m704.9 1299.9c-8.7-2.6-22.6-9.9-30.5-16-32.5-24.1-45.5-35.1-48.4-40.9-1.7-3.2-8.4-11.9-14.5-19.1-6.1-7.3-11-15.7-11-18.6s-3.2-10.2-7.3-16c-9.6-13.9-15.7-36-19.1-69.6-2.9-29.9-2.3-34.2 6.4-58 3.5-8.7 7.5-19.7 9.3-24.4 1.7-4.6 13.6-20.3 26.1-34.8 24.7-27.8 60.1-53.7 74.6-54 4.1 0 22.6-7.8 41.2-17.1 49.9-25.2 69.6-27.6 132.6-16.5 42.6 7.8 58.3 16.2 93.1 51.3 16.2 16.5 32.8 34.8 36.6 40.3 23.5 35.7 24.9 127.4 2.3 171.4-9.6 18.9-56.6 67.6-70.8 73.4-5.8 2.3-15.7 8.7-22.3 14.2-13.1 10.7-50.8 25.2-85.6 32.8-11.6 2.6-38 5.2-58.9 5.8-30.8 0.9-40.6 0-53.7-4.4zm103-91.4c7.5-3.2 11.9-8.4 18.6-21.8 12.2-24.1 15.1-38.3 11.3-58-4.9-26.4-19.7-31.3-37.1-13.3-13.9 14.5-22.3 13.1-31.9-4.9-4.1-7.5-8.7-15.4-10.7-17.1-5.5-5.2-16.5 3.5-24.1 19.1-5.5 11.3-6.4 16.8-5.2 34.8 0.9 13.1 3.2 24.4 6.1 28.7 6.7 9.9 47.6 36.6 56.3 36.6 3.8 0 11.3-1.7 16.8-4.1z"/>
<path d="m1438.9 1298.5c-7.3-2-21.8-6.1-32.5-8.4-29.6-7-103.3-52.2-137.5-84.1-13.6-12.8-20-21.2-26.4-36.3-8.1-19.4-8.1-19.4-7.5-79.8 0.3-55.4 0.9-61.2 6.7-73.4 3.5-7 10.7-16 16.2-19.7 5.5-3.5 13.6-11.9 18.6-18.6 4.9-6.7 9.9-12.2 11.3-12.2 1.5 0 11.3-6.1 22-13.3 10.7-7.3 28.7-17.7 40-23.2 20.9-9.9 20.9-9.9 78.9-9.9 88.5-0.3 125.6 8.4 146.2 34.5 20.9 26.7 38 67.9 51.9 125 5.8 24.7 7.3 36.6 6.7 62.4-0.6 34.5-4.6 52.5-15.4 69.9-4.1 6.4-9.9 17.1-13.3 24.4-9 18.9-27.6 39.2-42.1 46.1-15.7 7.5-64.4 18-90.5 19.4-11.9 0.6-25.8-0.6-33.4-2.9zm18.9-97.8c22.6-13.3 32.2-33.9 29.6-63.5-2-24.7-8.1-37.7-17.7-37.7-5.2 0-8.4 2.9-12.5 11-4.1 8.4-7.3 11-13.9 11.6-7.5 0.6-10.4-1.2-18.6-12.2-10.2-13.3-24.4-20.9-33.1-17.4-15.4 5.8-17.1 69.6-2.6 94.6 3.8 6.4 19.4 15.7 35.4 20.9 7 2 24.1-1.5 33.4-7.3z"/>
</g>
<g transform="matrix(1.0667 0 0 1.0667 3874.6 778.23)" enable-background="new">
<g transform="translate(298.48 209.82)">
<title>Layer 1</title>
<g display="none" stroke-linecap="round">
<rect x="-322.36" y="-103.1" width="1080.4" height="607.73" fill="#e3e5e8" stroke-width="2.8888"/>
<ellipse cx="217.42" cy="428.35" rx="115.14" ry="23.263" fill="#c5cacf" stroke-width="4.0988"/>
<ellipse cx="446.79" cy="414.42" rx="42.956" ry="8.679" fill="#c5cacf" stroke-width="1.5292"/>
</g>
<g transform="matrix(5.3889 0 0 4.0713 -3697.5 27.794)">
<path d="m259.16 242.6c37.329-1.4264 74.657-1.6634 111.99 0v25.117c-37.329 0.94235-74.657 0.82379-111.99 0z" fill="#5f656f" stroke="#595f67" stroke-linecap="round" stroke-width="2.0248"/>
<rect x="264.06" y="247.94" width="61.977" height="16.175" ry="2.3613" fill="#eecd1a" stroke-linecap="round" stroke-width=".83255"/>
<path d="m266.39 250.47v9.1749h1.9814v1.6317h1.6318v1.9814h5.9133v-1.9814h1.6317v-1.6317h1.9814v-9.0948l-7.8145-0.0474-1.7118-0.0327v0.0165l-1.6318-0.0165v0.0123l-1.9814-0.0123z" fill-rule="evenodd" stroke-width=".74206px"/>
<path d="m280.97 250.47v9.1749h1.9814v1.6317h1.6317v1.9814h5.9133v-1.9814h1.6317v-1.6317h1.9814v-9.0948l-7.8145-0.0474-1.7118-0.0327v0.0165l-1.6317-0.0165v0.0123l-1.9814-0.0123z" fill-rule="evenodd" stroke-width=".74206px"/>
<path d="m295.72 250.47v9.1749h1.9814v1.6317h1.6317v1.9814h5.9133v-1.9814h1.6317v-1.6317h1.9814v-9.0948l-7.8145-0.0474-1.7118-0.0327v0.0165l-1.6317-0.0165v0.0123l-1.9814-0.0123z" fill-rule="evenodd" stroke-width=".74206px"/>
<path d="m310.64 250.47v9.1749h1.9814v1.6317h1.6318v1.9814h5.9133v-1.9814h1.6317v-1.6317h1.9814v-9.0948l-7.8145-0.0474-1.7118-0.0327v0.0165l-1.6318-0.0165v0.0123l-1.9814-0.0123z" fill-rule="evenodd" stroke-width=".74206px"/>
<circle cx="341.68" cy="255.88" r="2.9002" fill="#e71f1f" stroke-linecap="round" stroke-width=".9375"/>
<circle cx="341.68" cy="255.88" r=".96665" stroke-linecap="round" stroke-width=".31247"/>
<circle cx="357.01" cy="255.88" r="6.5916" fill="#373737" stroke-linecap="round" stroke-width="2.1307"/>
<circle cx="357.01" cy="255.88" r="4.453" stroke-linecap="round" stroke-width="1.4394"/>
<circle cx="357.01" cy="255.88" r="1.7577" fill="#b4b4b4" stroke-linecap="round" stroke-width=".56816"/>
<path d="m296.45 251.1v7.9119h1.7105v1.4071h1.4087v1.7087h5.105v-1.7087h1.4087v-1.4071h1.7105v-7.8428l-6.7463-0.0408-1.4778-0.0282v0.0141l-1.4087-0.0141v0.0105l-1.7105-0.0107z" fill="#e7e7e7" fill-rule="evenodd" stroke="#646464" stroke-width=".64027px"/>
</g>
<g transform="matrix(7.1459 0 0 4.0713 -2669.3 -10.046)" fill-rule="evenodd">
<path d="m-14.818 163.33c-9.2378-0.59094-16.571 7.1512-27.024 11.959-3.9262 4.1264 1.2312 11.283 5.0674 7.0312 6.9016-7.4481 14.155-10.101 21.558-9.627 7.4027 0.4736 15.003 4.2662 21.869 10.34 13.732 12.147 24.113 33.418 24.501 51.658 0.13816 6.5065 0.9153 20.409 2.193 33.818 0.63883 6.7046 1.3999 13.251 2.2903 18.697 0.89042 5.4459 1.4917 9.4448 3.5208 12.85 5.3396 8.9594 13.875 13.393 21.66 14.293 3.8924 0.45013 7.6449 0.033 10.934-1.4609 3.2896-1.4939 6.2909-4.2806 7.5796-8.5313 2.6191-8.6388 2.0468-17.988 2.3334-24.67 0.14329-3.3407 0.5546-5.9438 1.0087-7.0391 0.45409-1.0952 1.1378-5.0534 2.6072-5.1138 2.1425-0.0407 2.9608-1.1054 2.8889-3.726-0.0718-2.6207-3.2406-2.7537-5.3805-2.6186-3.6319 0.14929-5.5372 3.8128-6.9483 7.2162-1.4111 3.4033-1.6658 7.0226-1.8275 10.791-0.3233 7.5368-0.0613 15.949-1.8658 21.9-0.32225 1.0629-1.1821 2.1486-3.0612 3.002s-4.6022 1.2588-7.5492 0.91797c-5.894-0.68164-12.491-4.2789-16.19-10.486-0.0568-0.0952-1.3754-4.1343-2.1977-9.1641-0.82238-5.0298-1.569-11.395-2.193-17.943-1.2478-13.097-2.0194-27.058-2.1451-32.977-0.47163-22.213-12.059-45.202-27.67-59.012-7.8056-6.9049-16.72-11.514-25.958-12.105z" fill="#e7e7e7" stroke="#000" stroke-linecap="round" stroke-width=".93875"/>
<path d="m-35.22 169.91s-11.3 3.0469-12.641 3.75c-1.3407 0.70313-7.1343 5.5078-7.1343 5.5078l-0.0958 11.719 10.869 3.6914s6.7991-6.9141 6.8949-7.1484c0.0958-0.23438 5.9373-9.668 5.9373-9.668 1.1292-5.954-1.1927-7.1219-3.8305-7.8516z" fill="#e7e7e7" stroke="#000" stroke-width=".89965"/>
<path d="m-54.803 179.4 1.3886 0.35156 1.6639-1.7139 3.0668 1.251 1.9057 3.1699 2.7005 1.1016-0.14364 10.898" fill="none" stroke="#000008" stroke-width=".84748px"/>
<path d="m-48.674 179.14 6.2245-2.1387" fill="none" stroke="#000" stroke-linecap="round" stroke-width=".45851"/>
<path d="m-51.75 177.83 6.0214-2.3458" fill="none" stroke="#000" stroke-linecap="round" stroke-width=".45851"/>
<g transform="matrix(.65001 .28102 -.22964 .79544 -45.908 5.3697)" fill="#c88825" stroke-width=".7779">
<path d="m56.094 217.77-0.7793 0.01 0.0137 0.98242 0.77734-0.01-0.01175-0.98242z"/>
<path d="m57.129 217.77-0.77734 0.01 0.0117 0.98242 0.77734-0.01z"/>
<path d="m58.124 217.77-0.77734 0.01 0.0117 0.98242 0.77734-0.01z"/>
<path d="m59.139 217.77-0.7793 0.01 0.0137 0.98242 0.77734-0.01-0.01175-0.98242z"/>
<path d="m60.174 217.77-0.77733 0.01 0.01169 0.98242 0.7793-0.01z"/>
<path d="m61.209 217.77-0.77734 0.01 0.0137 0.98242 0.77734-0.01z"/>
<path d="m62.204 217.77-0.77734 0.01 0.0137 0.98242 0.77734-0.01z"/>
<path d="m63.219 217.77-0.77734 0.01 0.0117 0.98242 0.7793-0.01z"/>
</g>
<path d="m-62.097 188.38 0.27087 5.3033 1.0862 0.43973 0.36012-0.53387 6.0964 2.7285 0.22744 0.93594 1.0666 0.49005 8.0795-6.9727 0.0636-6.5362-9.0911-3.7268-7.6517 5.8834 0.0338 1.5744-0.54171 0.41431z" fill="#e7e7e7" stroke="#000" stroke-width=".84748px"/>
<path d="m-61.623 187.93 8.769 4.4332 7.9564-6.4634" fill="none" stroke="#00000e" stroke-width=".84748px"/>
<path d="m-52.964 192.16-0.39782 1.0254 0.23701 4.5575" fill="none" stroke="#000" stroke-width=".84748px"/>
<path d="m-59.659 186.72 2.8101-2.7345 0.81257-2.0302 1.2684 0.35614 3.2185-3.0438 1.8054 0.69427-2.6696 3.3606 1.422 0.6629 0.13544 1.4501-3.9274 3.2317" fill="#e7e7e7" stroke="#000" stroke-width=".84748px"/>
</g>
<use width="100%" height="100%" href="#svg_1" xlink:href="#svg_1"/>
</g>
</g>
<g transform="translate(-99.9 -28.6)">
<path d="m1163.1 1602.1c-1.0058 0.1273-2.1549 0.7111-2.2442 1.8397-1.3189 4.2261-2.292 8.5508-3.1328 12.895-0.3306 1.8039-0.7264 3.8025-1.0062 5.6967-0.9665 6.1479-1.6342 12.216-2.1435 18.398-0.8478 10.363-1.2642 20.861-1.6499 31.324-0.3725 13.197-0.3501 26.406-0.023 39.604 0.1757 6.457 0.502 13.116 0.9923 19.536 0.2437 3.0736 0.5104 6.1372 0.8383 9.1431 1.2008 11.035 2.9162 22.048 5.8375 32.769 0.4665 1.7055 1.019 3.6065 1.5741 5.3715 2.1588 6.6838 4.4338 13.46 8.4069 19.32 1.3541 1.9413 2.844 3.8447 4.6753 5.3496 2.2647 0.9717 4.8017 0.3176 7.0654-0.319 5.8182-1.9175 10.49-6.0474 15.197-9.8009 7.0575-5.7901 13.814-12.298 18.112-20.46 2.783-5.1699 5.5406-10.355 8.2265-15.576 3.0746-6.0817 5.9522-12.355 7.4399-19.036 1.0613-5.8257 1.4151-11.749 1.9103-17.641 1.2942-18.147 1.3124-36.45 3.9161-54.514 0.6182-4.4418 1.7943-8.7829 2.3925-13.228 0.1289-0.9432 0.2877-2.1532 0.3916-3.2046 0.221-2.1357 0.397-4.1162 0.5303-6.2758 0.5812-9.2083 0.1114-18.432-0.051-27.645-0.075-0.5509 0.2819-1.5119-0.6138-1.2838-2.2444-0.1521-4.5104-0.3221-6.7313-0.4713-2.187 16.81-2.508 33.781-3.9133 50.66-0.8243 10.267-1.7246 20.555-3.7662 30.665-2.463 13.022-6.0867 25.794-10.194 38.384-0.5876 2.2646-1.0379 4.5779-1.9876 6.7315-1.8607 4.6649-5.2492 8.7982-9.7592 11.101-6.4239 3.3378-14.725 2.9292-20.604-1.3852-5.5776-3.8188-9.1964-10.002-10.772-16.492-1.2091-5.044-1.9312-10.192-2.6065-15.33-2.5588-20.246-1.9649-40.698-1.874-61.055 0.1558-14.41 1.7476-28.738 2.5171-43.1 0.1996-3.7169 0.3451-7.5556 0.3536-11.324-2.428-0.2664-4.8596-0.6276-7.3047-0.6465z"/>
</g>
<path d="m1353.6 685.47c-1.6609-2.6006-5.0148-15.131-7.4533-27.845-2.4385-12.714-6.458-31.306-8.9322-41.315-4.4454-17.984-4.4542-18.43-0.7466-37.827 10.516-55.017 31.862-131.73 49.847-179.13 5.7452-15.143 15.926-42.191 22.623-60.106 17.436-46.641 24.832-63.341 59.473-134.29 18.222-37.318 33.699-48.22 49.536-34.895 25.377 21.353 17.42 104.68-22.677 237.48-15.017 49.734-41.99 130.31-52.239 156.04-20.105 50.489-69.959 126.61-82.921 126.61-1.9196 0-4.8491-2.1278-6.5099-4.7284z" fill="#ffd5d5" stroke-width="2.1015"/>
<path d="m621.08 801.13c-9.4094-6.3588-33.202-35.897-47.88-59.441-15.504-24.87-30.077-57.476-49.602-110.98-14.681-40.229-34.385-88.419-39.261-96.018-1.1124-1.7338-2.6071-4.3774-3.3216-5.8749-0.7144-1.4974 3.0455-14.737 8.3554-29.421 11.079-30.64 13.538-39.536 16.94-61.285l2.451-15.673 11.81 21.451c6.998 12.711 10.94 21.988 9.6749 22.77-4.1712 2.578 0.4149 16.06 19.136 56.258 33.649 72.247 47.258 109.76 64.28 177.16 6.4635 25.595 14.45 51.639 18.771 61.208 7.9484 17.604 9.3979 29.108 4.8102 38.175-3.5426 7.0022-7.6451 7.4255-16.164 1.6681z" fill="#ffd5d5" stroke-width="2.1015"/>
<text transform="translate(-99.9 -28.6)" fill="#000000" font-family="sans-serif" font-size="40px" style="line-height:1.25;shape-inside:url(#rect82);white-space:pre" xml:space="preserve"><tspan x="1897.7832" y="1058.4664" visibility="hidden"><tspan dx="0 73.875 74.625 73.875 75.375 82.125 51" font-family="'Patrick Hand'" font-size="192px" style="font-variant-caps:normal;font-variant-east-asian:normal;font-variant-ligatures:normal;font-variant-numeric:normal">scrapli</tspan></tspan></text>
<g transform="matrix(3.3665 0 0 2.4959 -9480 -777.04)" fill="#fff" stroke="#000" stroke-width="5.1748" style="font-variant-caps:normal;font-variant-east-asian:normal;font-variant-ligatures:normal;font-variant-numeric:normal;shape-inside:url(#rect88);white-space:pre" aria-label="scrapli">
<path d="m3333.1 1049q0-11.328 8.064-18.048t18.624-6.72q10.752 0 20.544 3.84t9.792 10.176q0 3.264-2.496 5.184t-4.416 1.92q-1.728 0-2.88 0-0.96-0.192-7.68-3.648-6.528-3.456-12.096-3.456t-9.6 2.88q-3.84 2.688-3.84 8.064t4.416 8.448q4.608 3.072 15.936 5.376 11.328 2.112 17.28 6.144 6.144 4.032 6.144 14.976 0 15.936-8.448 22.656-8.256 6.528-20.16 6.528t-20.352-3.264q-8.256-3.264-8.256-9.792 0-7.488 7.488-7.488 1.92 0 8.448 2.688t12.864 2.688q6.528 0 9.792-4.032 3.456-4.224 3.456-9.6t-4.416-7.68q-4.416-2.496-13.44-4.032t-13.248-3.264q-11.52-4.608-11.52-20.544z"/>
<path d="m3401 1069.4q0-12.864 6.72-23.424 6.912-10.56 17.472-15.744 10.56-5.376 20.544-5.376t15.936 2.496q6.144 2.304 6.144 6.336 0 3.84-2.304 7.872-2.112 3.84-5.76 3.84-1.344 0-7.488-2.112-5.952-2.304-7.68-2.304-11.136 0-19.008 8.256-7.872 8.064-7.872 21.504t4.224 20.16q4.416 6.528 14.976 6.528 4.224 0 14.4-4.8 10.368-4.992 12.864-4.992t4.032 1.536 1.536 3.84q0 4.608-5.952 9.792-5.76 4.992-14.4 8.448-8.64 3.264-15.552 3.264-15.36 0-24.192-12.096-8.64-12.096-8.64-33.024z"/>
<path d="m3503.1 1086.3 0.192 19.776q0 3.456-3.264 6.336-3.072 2.88-6.144 2.88-4.416 0-5.568-6.912-0.192-1.536-1.536-28.032-1.344-26.688-5.184-41.856-1.728-7.296-1.728-8.64 0-6.336 7.68-6.336 3.264 0 5.184 2.496t2.304 5.184q0.576 2.496 0.96 6.912t0.576 5.568q4.032-9.6 12.096-14.4t17.664-4.8q15.744 0 15.744 8.064 0 4.032-2.88 6.528-2.688 2.304-6.336 2.304-16.32 0-23.04 10.368t-6.72 34.56z"/>
<path d="m3605.7 1024.7q8.448 0 8.448 14.4 0 1.536 0 3.264l-0.384 13.44q-0.192 6.336-0.192 12.48l2.88 43.392q0 4.8-9.792 4.8-0.576 0-2.88 0-2.112 0-3.072-1.728-0.768-1.728-0.192-4.224 0.768-2.496-0.384-5.568-8.832 9.408-23.424 9.408-27.072 0-27.072-41.856 0-23.232 8.64-35.136 8.832-11.904 25.152-11.904 7.68 0 15.36 2.688 2.496-3.456 6.912-3.456zm-19.968 17.472q-10.944 0-16.32 6.336t-5.376 23.232q0 28.416 15.36 28.416 4.032 0 8.832-3.648 4.992-3.648 6.912-8.256 3.648-10.368 3.648-22.656t-3.072-17.856q-2.88-5.568-9.984-5.568z"/>
<path d="m3657.9 1114.1q-6.528 0-12.096-4.416 0 0-2.496-2.112v57.6q-1.152 3.84-4.032 6.336-2.88 2.688-6.144 2.688-4.992 0-4.992-6.72v-133.82q1.152-4.992 2.688-7.104 1.728-2.112 5.184-2.112 3.648 0 4.608 1.728 1.152 1.536 2.688 8.832 0.768-3.84 6.144-7.104t14.4-3.264q19.584 0 27.84 14.208t8.256 33.6q0 19.2-11.328 30.528-11.136 11.136-30.72 11.136zm-14.592-57.6v35.712q1.152 0.576 2.688 1.92 5.568 4.992 12.096 4.992 26.496 0 26.496-27.264 0-23.232-11.904-29.376-4.992-2.688-12.288-2.688-7.104 0.96-12.096 6.336-4.992 5.184-4.992 10.368z"/>
<path d="m3709.1 990.1q0.576-7.296 2.304-9.408 1.92-2.304 5.952-2.304 8.256 0 8.256 6.72 0 5.184-0.96 27.072-0.768 21.888-0.768 39.168t1.344 27.84q2.304 18.432 6.528 18.432t6.336-5.952q0.96-2.304 3.072-4.032 2.112-1.92 5.376-1.92 6.72 0 6.72 11.328 0 6.144-6.72 12.288-6.528 5.952-13.056 5.952t-10.56-2.112q-3.84-2.304-6.336-6.72-2.304-4.416-3.84-8.448-1.344-4.224-1.92-10.176-1.152-9.6-1.728-30.72-0.384-21.312-0.384-40.512 0-19.392 0.384-26.496z"/>
<path d="m3773.3 992.98q3.456 0 6.528 3.264t3.072 6.912q0 3.456-3.456 7.104-3.264 3.648-6.912 3.648t-6.72-3.072q-2.88-3.072-2.88-7.872 0-9.216 9.984-9.984 0.192 0 0.384 0zm8.064 100.61 0.192 13.44q0 3.648-2.88 6.144-2.88 2.304-6.144 2.304-4.8 0-4.992-4.8-2.496-61.248-2.496-67.776t0.576-15.936q0.384-3.456 4.416-3.456 10.176 0 11.52 8.256 0.576 4.224 0.576 6.72l-0.768 12.096z"/>
</g>
</svg>
